<svg id="Layer_1" data-name="Layer 1" xmlns="http://www.w3.org/2000/svg" xmlns:xlink="http://www.w3.org/1999/xlink" viewBox="0 0 256 128"><defs><style>.cls-1{fill:#595a65;}.cls-2,.cls-9{fill:none;}.cls-3{clip-path:url(#clip-path);}.cls-4{fill:#797e8f;}.cls-5{fill:#8d95a0;}.cls-6{fill:#1b3764;}.cls-7{clip-path:url(#clip-path-2);}.cls-8{clip-path:url(#clip-path-3);}.cls-9{stroke:#666767;stroke-width:0.25px;}.cls-13,.cls-9{stroke-miterlimit:10;}.cls-10{fill:#231f20;}.cls-11{clip-path:url(#clip-path-4);}.cls-12{clip-path:url(#clip-path-5);}.cls-13,.cls-14{fill:#999;}.cls-13{stroke:#231f20;stroke-width:2px;}.cls-15{fill:#323333;}</style><clipPath id="clip-path"><path class="cls-1" d="M11.57,128a12.08,12.08,0,0,1-8.25-3.23,10.46,10.46,0,0,1-3.31-8L10.59,10.41C10.84,4.56,15.92,0,22.16,0H244.42a12.08,12.08,0,0,1,8.26,3.23,10.46,10.46,0,0,1,3.31,8l-9.55,106.38c-.25,5.82-5.33,10.38-11.56,10.38Zm228.72-7.13L248.85,9.13l-230.19-2L6.14,120.87Z"/></clipPath><clipPath id="clip-path-2"><polygon id="FRAMER" class="cls-2" points="245.62 10.81 182.56 10.81 192.61 17.72 217.04 17.79 236.16 36.85 234.11 61.25 241.82 72.45 245.62 10.81"/></clipPath><clipPath id="clip-path-3"><rect class="cls-2" x="106.91" y="8.77" width="164.17" height="175.28"/></clipPath><clipPath id="clip-path-4"><polygon id="FRAMEL" class="cls-2" points="23.74 8.77 48.68 8.77 41.68 101.43 14.47 115.81 23.74 8.77"/></clipPath><clipPath id="clip-path-5"><rect class="cls-2" y="-0.46" width="164.17" height="175.28"/></clipPath></defs><title>TOKENBLUE</title><g id="FRAME"><g id="FRAME-2" data-name="FRAME"><path class="cls-1" d="M11.57,128a12.08,12.08,0,0,1-8.25-3.23,10.46,10.46,0,0,1-3.31-8L10.59,10.41C10.84,4.56,15.92,0,22.16,0H244.42a12.08,12.08,0,0,1,8.26,3.23,10.46,10.46,0,0,1,3.31,8l-9.55,106.38c-.25,5.82-5.33,10.38-11.56,10.38Zm228.72-7.13L248.85,9.13l-230.19-2L6.14,120.87Z"/><g class="cls-3"><polygon class="cls-4" points="252.68 3.23 3.32 124.77 -17.38 124.77 4.87 -24.45 251.7 -21.38 252.68 3.23"/><polygon class="cls-5" points="190.04 -36.12 -59.33 85.42 -85.03 85.42 -72.77 -63.8 184.06 -60.74 190.04 -36.12"/></g></g><polygon id="FRAMER-2" data-name="FRAMER" class="cls-6" points="245.62 10.81 182.56 10.81 192.61 17.72 217.04 17.79 236.16 36.85 234.11 61.25 241.82 72.45 245.62 10.81"/><g class="cls-7"><g class="cls-8"><line class="cls-9" x1="43.91" y1="257.51" x2="448.42" y2="-146.99"/><line class="cls-9" x1="-35.45" y1="336.87" x2="448.42" y2="-146.99"/><line class="cls-9" x1="-51.22" y1="357.58" x2="432.65" y2="-126.28"/><line class="cls-9" x1="-68.17" y1="379.84" x2="415.69" y2="-104.01"/><line class="cls-9" x1="-85.12" y1="402.11" x2="398.74" y2="-81.75"/><line class="cls-9" x1="-102.08" y1="424.37" x2="381.79" y2="-59.49"/><line class="cls-9" x1="-51.22" y1="357.58" x2="432.65" y2="-126.28"/><line class="cls-9" x1="-18.29" y1="314.34" x2="465.57" y2="-169.51"/><line class="cls-9" x1="-1.14" y1="291.81" x2="482.73" y2="-192.04"/><line class="cls-9" x1="14.8" y1="270.89" x2="498.66" y2="-212.97"/><line class="cls-9" x1="-169.73" y1="513.21" x2="314.13" y2="29.36"/><line class="cls-9" x1="-185.5" y1="533.92" x2="298.36" y2="50.07"/><line class="cls-9" x1="-152.58" y1="490.69" x2="331.28" y2="6.83"/><line class="cls-9" x1="-135.42" y1="468.16" x2="348.44" y2="-15.7"/><line class="cls-9" x1="-119.49" y1="447.23" x2="364.38" y2="-36.62"/><line class="cls-9" x1="147.06" y1="96.6" x2="551.56" y2="-307.89"/><line class="cls-9" x1="67.7" y1="175.96" x2="551.56" y2="-307.89"/><line class="cls-9" x1="51.93" y1="196.67" x2="535.79" y2="-287.18"/><line class="cls-9" x1="34.97" y1="218.94" x2="518.84" y2="-264.92"/><line class="cls-9" x1="18.02" y1="241.2" x2="501.88" y2="-242.66"/><line class="cls-9" x1="1.06" y1="263.46" x2="484.93" y2="-220.39"/><line class="cls-9" x1="51.93" y1="196.67" x2="535.79" y2="-287.18"/><line class="cls-9" x1="84.85" y1="153.44" x2="568.71" y2="-330.42"/><line class="cls-9" x1="58.34" y1="173.57" x2="585.87" y2="-353.95"/><line class="cls-9" x1="117.94" y1="108.98" x2="601.81" y2="-374.87"/><line class="cls-9" x1="-66.59" y1="352.31" x2="417.27" y2="-131.55"/><line class="cls-9" x1="-49.44" y1="329.78" x2="434.43" y2="-154.07"/><line class="cls-9" x1="-32.28" y1="307.25" x2="451.58" y2="-176.6"/><line class="cls-9" x1="-16.35" y1="286.33" x2="467.52" y2="-197.53"/><line class="cls-9" x1="-195.81" y1="550.08" x2="288.06" y2="66.23"/><line class="cls-9" x1="315.02" y1="67.45" x2="39.45" y2="67.45"/><line class="cls-9" x1="317.86" y1="72.76" x2="22.51" y2="72.76"/><line class="cls-9" x1="330.32" y1="78.07" x2="63.46" y2="78.07"/><line class="cls-9" x1="307.19" y1="83.38" x2="67.47" y2="83.38"/><line class="cls-9" x1="307.19" y1="88.69" x2="177.32" y2="88.69"/><line class="cls-9" x1="315.02" y1="62.45" x2="53.86" y2="62.45"/><line class="cls-9" x1="307.19" y1="88.69" x2="71.74" y2="88.69"/><line class="cls-9" x1="315.02" y1="99" x2="71.74" y2="99"/><line class="cls-9" x1="317.86" y1="104.31" x2="46.1" y2="104.31"/><line class="cls-9" x1="330.32" y1="109.62" x2="59.91" y2="109.62"/><line class="cls-9" x1="307.19" y1="114.93" x2="67.47" y2="114.93"/><line class="cls-9" x1="315.02" y1="94" x2="53.86" y2="94"/><line class="cls-9" x1="307.19" y1="125.55" x2="-18.19" y2="125.55"/><line class="cls-9" x1="307.19" y1="120.24" x2="71.74" y2="120.24"/><line class="cls-9" x1="223.36" y1="-48.97" x2="223.36" y2="209.92"/><line class="cls-9" x1="228.67" y1="-50.51" x2="228.67" y2="215.38"/><line class="cls-9" x1="233.98" y1="-50.51" x2="233.98" y2="215.38"/><line class="cls-9" x1="218.04" y1="-48.97" x2="218.04" y2="206.69"/><line class="cls-9" x1="212.73" y1="-48.97" x2="212.73" y2="209.92"/><line class="cls-9" x1="207.42" y1="-48.97" x2="207.42" y2="233.02"/><line class="cls-9" x1="202.18" y1="-48.97" x2="202.18" y2="209.92"/><line class="cls-9" x1="207.49" y1="-50.51" x2="207.49" y2="215.38"/><line class="cls-9" x1="196.87" y1="-48.97" x2="196.87" y2="206.69"/><line class="cls-9" x1="191.56" y1="-48.97" x2="191.56" y2="209.92"/><line class="cls-9" x1="186.25" y1="-48.97" x2="186.25" y2="233.02"/><rect class="cls-9" x="186.15" y="62.45" width="47.82" height="63.1"/><line class="cls-9" x1="255.15" y1="-48.97" x2="255.15" y2="233.02"/><line class="cls-9" x1="249.91" y1="-48.97" x2="249.91" y2="209.92"/><line class="cls-9" x1="255.22" y1="-50.51" x2="255.22" y2="215.38"/><line class="cls-9" x1="244.6" y1="-48.97" x2="244.6" y2="206.69"/><line class="cls-9" x1="239.29" y1="-48.97" x2="239.29" y2="209.92"/><line class="cls-9" x1="233.98" y1="-48.97" x2="233.98" y2="233.02"/><line class="cls-9" x1="127.9" y1="-48.97" x2="127.9" y2="209.92"/><line class="cls-9" x1="133.21" y1="-50.51" x2="133.21" y2="215.38"/><line class="cls-9" x1="138.52" y1="-50.51" x2="138.52" y2="215.38"/><line class="cls-9" x1="122.59" y1="-48.97" x2="122.59" y2="206.69"/><line class="cls-9" x1="117.28" y1="-48.97" x2="117.28" y2="209.92"/><line class="cls-9" x1="111.97" y1="-48.97" x2="111.97" y2="233.02"/><line class="cls-9" x1="106.73" y1="-48.97" x2="106.73" y2="209.92"/><line class="cls-9" x1="112.04" y1="-50.51" x2="112.04" y2="215.38"/><line class="cls-9" x1="101.42" y1="-48.97" x2="101.42" y2="206.69"/><line class="cls-9" x1="96.1" y1="-48.97" x2="96.1" y2="209.92"/><line class="cls-9" x1="90.79" y1="-48.97" x2="90.79" y2="233.02"/><line class="cls-9" x1="175.63" y1="-48.97" x2="175.63" y2="209.92"/><line class="cls-9" x1="180.94" y1="-50.51" x2="180.94" y2="215.38"/><line class="cls-9" x1="186.25" y1="-50.51" x2="186.25" y2="215.38"/><line class="cls-9" x1="170.32" y1="-48.97" x2="170.32" y2="206.69"/><line class="cls-9" x1="165.01" y1="-48.97" x2="165.01" y2="209.92"/><line class="cls-9" x1="159.7" y1="-48.97" x2="159.7" y2="233.02"/><line class="cls-9" x1="154.45" y1="-48.97" x2="154.45" y2="209.92"/><line class="cls-9" x1="159.76" y1="-50.51" x2="159.76" y2="215.38"/><line class="cls-9" x1="149.14" y1="-48.97" x2="149.14" y2="206.69"/><line class="cls-9" x1="143.83" y1="-48.97" x2="143.83" y2="209.92"/><line class="cls-9" x1="138.52" y1="-48.97" x2="138.52" y2="233.02"/><line class="cls-9" x1="315.02" y1="4.35" x2="39.45" y2="4.35"/><line class="cls-9" x1="317.86" y1="9.66" x2="22.51" y2="9.66"/><line class="cls-9" x1="330.32" y1="14.97" x2="63.46" y2="14.97"/><line class="cls-9" x1="307.19" y1="20.28" x2="67.47" y2="20.28"/><line class="cls-9" x1="307.19" y1="25.59" x2="177.32" y2="25.59"/><line class="cls-9" x1="307.19" y1="25.59" x2="71.74" y2="25.59"/><line class="cls-9" x1="315.02" y1="35.9" x2="71.74" y2="35.9"/><line class="cls-9" x1="317.86" y1="41.21" x2="46.1" y2="41.21"/><line class="cls-9" x1="330.32" y1="46.52" x2="59.91" y2="46.52"/><line class="cls-9" x1="307.19" y1="51.83" x2="67.47" y2="51.83"/><line class="cls-9" x1="315.02" y1="30.9" x2="53.86" y2="30.9"/><line class="cls-9" x1="307.19" y1="62.45" x2="-18.19" y2="62.45"/><line class="cls-9" x1="307.19" y1="57.14" x2="71.74" y2="57.14"/><line class="cls-9" x1="315.02" y1="125.55" x2="53.86" y2="125.55"/><line class="cls-9" x1="43.91" y1="383.45" x2="448.42" y2="-21.04"/><line class="cls-9" x1="-35.45" y1="462.81" x2="448.42" y2="-21.04"/><line class="cls-9" x1="-51.22" y1="483.52" x2="432.65" y2="-0.33"/><line class="cls-9" x1="-68.17" y1="505.79" x2="415.69" y2="21.93"/><line class="cls-9" x1="-85.12" y1="528.05" x2="398.74" y2="44.19"/><line class="cls-9" x1="-102.08" y1="550.31" x2="381.79" y2="66.46"/><line class="cls-9" x1="-51.22" y1="483.52" x2="432.65" y2="-0.33"/><line class="cls-9" x1="-18.29" y1="440.29" x2="465.57" y2="-43.57"/><line class="cls-9" x1="-1.14" y1="417.76" x2="482.73" y2="-66.1"/><line class="cls-9" x1="14.8" y1="396.83" x2="498.66" y2="-87.02"/><line class="cls-9" x1="-135.42" y1="594.1" x2="348.44" y2="110.25"/><line class="cls-9" x1="-119.49" y1="573.18" x2="364.38" y2="89.32"/><line class="cls-9" x1="147.06" y1="222.55" x2="551.56" y2="-181.95"/><line class="cls-9" x1="67.7" y1="301.91" x2="551.56" y2="-181.95"/><line class="cls-9" x1="51.93" y1="322.62" x2="535.79" y2="-161.24"/><line class="cls-9" x1="34.97" y1="344.88" x2="518.84" y2="-138.98"/><line class="cls-9" x1="18.02" y1="367.14" x2="501.88" y2="-116.71"/><line class="cls-9" x1="1.06" y1="389.41" x2="484.93" y2="-94.45"/><line class="cls-9" x1="51.93" y1="322.62" x2="535.79" y2="-161.24"/><line class="cls-9" x1="84.85" y1="279.38" x2="568.71" y2="-204.48"/><line class="cls-9" x1="102.01" y1="256.85" x2="585.87" y2="-227.01"/><line class="cls-9" x1="117.94" y1="235.93" x2="601.81" y2="-247.93"/><line class="cls-9" x1="-66.59" y1="478.25" x2="417.27" y2="-5.6"/><line class="cls-9" x1="-49.44" y1="455.73" x2="434.43" y2="-28.13"/><line class="cls-9" x1="-32.28" y1="433.2" x2="451.58" y2="-50.66"/><line class="cls-9" x1="-16.35" y1="412.27" x2="467.52" y2="-71.59"/><line class="cls-9" x1="43.91" y1="383.45" x2="448.42" y2="-21.04"/><line class="cls-9" x1="-35.45" y1="462.81" x2="448.42" y2="-21.04"/><line class="cls-9" x1="-51.22" y1="483.52" x2="432.65" y2="-0.33"/><line class="cls-9" x1="-68.17" y1="505.79" x2="415.69" y2="21.93"/><line class="cls-9" x1="-85.12" y1="528.05" x2="398.74" y2="44.19"/><line class="cls-9" x1="-102.08" y1="550.31" x2="381.79" y2="66.46"/><line class="cls-9" x1="-51.22" y1="483.52" x2="432.65" y2="-0.33"/><line class="cls-9" x1="-18.29" y1="440.29" x2="465.57" y2="-43.57"/><line class="cls-9" x1="-1.14" y1="417.76" x2="482.73" y2="-66.1"/><line class="cls-9" x1="14.8" y1="396.83" x2="498.66" y2="-87.02"/><line class="cls-9" x1="-135.42" y1="594.1" x2="348.44" y2="110.25"/><line class="cls-9" x1="-119.49" y1="573.18" x2="364.38" y2="89.32"/><line class="cls-9" x1="147.06" y1="222.55" x2="551.56" y2="-181.95"/><line class="cls-9" x1="67.7" y1="301.91" x2="551.56" y2="-181.95"/><line class="cls-9" x1="51.93" y1="322.62" x2="535.79" y2="-161.24"/><line class="cls-9" x1="34.97" y1="344.88" x2="518.84" y2="-138.98"/><line class="cls-9" x1="18.02" y1="367.14" x2="501.88" y2="-116.71"/><line class="cls-9" x1="1.06" y1="389.41" x2="484.93" y2="-94.45"/><line class="cls-9" x1="51.93" y1="322.62" x2="535.79" y2="-161.24"/><line class="cls-9" x1="84.85" y1="279.38" x2="568.71" y2="-204.48"/><line class="cls-9" x1="102.01" y1="256.85" x2="585.87" y2="-227.01"/><line class="cls-9" x1="117.94" y1="235.93" x2="601.81" y2="-247.93"/><line class="cls-9" x1="-66.59" y1="478.25" x2="417.27" y2="-5.6"/><line class="cls-9" x1="-49.44" y1="455.73" x2="434.43" y2="-28.13"/><line class="cls-9" x1="-32.28" y1="433.2" x2="451.58" y2="-50.66"/><line class="cls-9" x1="-16.35" y1="412.27" x2="467.52" y2="-71.59"/><line class="cls-9" x1="41.57" y1="133.4" x2="446.07" y2="-271.1"/><line class="cls-9" x1="-37.79" y1="212.76" x2="446.07" y2="-271.1"/><line class="cls-9" x1="-53.57" y1="233.47" x2="430.3" y2="-250.39"/><line class="cls-9" x1="-70.52" y1="255.73" x2="413.35" y2="-228.12"/><line class="cls-9" x1="-87.47" y1="278" x2="396.39" y2="-205.86"/><line class="cls-9" x1="-104.43" y1="300.26" x2="379.44" y2="-183.6"/><line class="cls-9" x1="-53.57" y1="233.47" x2="430.3" y2="-250.39"/><line class="cls-9" x1="-20.64" y1="190.23" x2="463.22" y2="-293.62"/><line class="cls-9" x1="-3.48" y1="167.7" x2="480.38" y2="-316.15"/><line class="cls-9" x1="12.45" y1="146.78" x2="496.31" y2="-337.08"/><line class="cls-9" x1="-172.08" y1="389.1" x2="311.78" y2="-94.75"/><line class="cls-9" x1="-187.85" y1="409.81" x2="296.01" y2="-74.04"/><line class="cls-9" x1="-154.93" y1="366.58" x2="328.94" y2="-117.28"/><line class="cls-9" x1="-137.77" y1="344.05" x2="346.09" y2="-139.81"/><line class="cls-9" x1="-121.84" y1="323.12" x2="362.03" y2="-160.73"/><line class="cls-9" x1="65.35" y1="51.85" x2="549.21" y2="-432"/><line class="cls-9" x1="49.58" y1="72.56" x2="533.44" y2="-411.29"/><line class="cls-9" x1="32.62" y1="94.83" x2="516.49" y2="-389.03"/><line class="cls-9" x1="15.67" y1="117.09" x2="499.53" y2="-366.77"/><line class="cls-9" x1="-1.29" y1="139.35" x2="482.58" y2="-344.5"/><line class="cls-9" x1="49.58" y1="72.56" x2="533.44" y2="-411.29"/><line class="cls-9" x1="82.5" y1="29.33" x2="566.37" y2="-454.53"/><line class="cls-9" x1="99.66" y1="6.8" x2="583.52" y2="-477.06"/><line class="cls-9" x1="-68.94" y1="228.2" x2="414.92" y2="-255.66"/><line class="cls-9" x1="-51.79" y1="205.67" x2="432.08" y2="-278.19"/><line class="cls-9" x1="-34.63" y1="183.14" x2="449.23" y2="-300.71"/><line class="cls-9" x1="-18.7" y1="162.22" x2="465.17" y2="-321.64"/></g></g><path class="cls-10" d="M243.46,78.36,232.06,61.8l2-24.19L216.21,19.78,192,19.72,176.13,8.81h71.61Zm-7.29-17.65,4,5.83,3.31-53.73H189l4.23,2.91,24.64.07,20.36,20.3Z"/><polygon id="FRAMEL-2" data-name="FRAMEL" class="cls-6" points="23.74 8.77 48.68 8.77 41.68 101.43 14.47 115.81 23.74 8.77"/><path id="FRAMEL-3" data-name="FRAMEL" class="cls-10" d="M48.68,8.77l-7,92.66L14.47,115.81l9.27-107H48.68m4.31-4H20.07l-.32,3.65-9.26,107-.64,7.31,6.49-3.43L43.55,105l2-1,.17-2.2,7-92.66L53,4.77Z"/><g class="cls-11"><g class="cls-12"><line class="cls-9" x1="-63" y1="248.28" x2="341.51" y2="-156.21"/><line class="cls-9" x1="-142.36" y1="327.64" x2="341.51" y2="-156.21"/><line class="cls-9" x1="-158.13" y1="348.35" x2="325.74" y2="-135.51"/><line class="cls-9" x1="-175.08" y1="370.61" x2="308.78" y2="-113.24"/><line class="cls-9" x1="-192.04" y1="392.88" x2="291.83" y2="-90.98"/><line class="cls-9" x1="-208.99" y1="415.14" x2="274.87" y2="-68.71"/><line class="cls-9" x1="-158.13" y1="348.35" x2="325.74" y2="-135.51"/><line class="cls-9" x1="-125.2" y1="305.12" x2="358.66" y2="-178.74"/><line class="cls-9" x1="-108.05" y1="282.59" x2="375.82" y2="-201.27"/><line class="cls-9" x1="-92.11" y1="261.66" x2="391.75" y2="-222.2"/><line class="cls-9" x1="-276.65" y1="503.99" x2="207.22" y2="20.13"/><line class="cls-9" x1="-292.42" y1="524.7" x2="191.45" y2="40.84"/><line class="cls-9" x1="-259.49" y1="481.46" x2="224.37" y2="-2.4"/><line class="cls-9" x1="-242.34" y1="458.93" x2="241.53" y2="-24.93"/><line class="cls-9" x1="-226.4" y1="438.01" x2="257.46" y2="-45.85"/><line class="cls-9" x1="40.14" y1="87.38" x2="444.65" y2="-317.12"/><line class="cls-9" x1="-39.22" y1="166.74" x2="444.65" y2="-317.12"/><line class="cls-9" x1="-54.99" y1="187.44" x2="428.88" y2="-296.41"/><line class="cls-9" x1="-71.94" y1="209.71" x2="411.92" y2="-274.15"/><line class="cls-9" x1="-88.9" y1="231.97" x2="394.97" y2="-251.88"/><line class="cls-9" x1="-105.85" y1="254.24" x2="378.01" y2="-229.62"/><line class="cls-9" x1="-54.99" y1="187.44" x2="428.88" y2="-296.41"/><line class="cls-9" x1="-22.06" y1="144.21" x2="461.8" y2="-339.65"/><line class="cls-9" x1="-48.57" y1="164.34" x2="478.96" y2="-363.18"/><line class="cls-9" x1="11.03" y1="99.75" x2="494.89" y2="-384.1"/><line class="cls-9" x1="-173.5" y1="343.08" x2="310.36" y2="-140.78"/><line class="cls-9" x1="-156.35" y1="320.55" x2="327.51" y2="-163.3"/><line class="cls-9" x1="-139.19" y1="298.02" x2="344.67" y2="-185.83"/><line class="cls-9" x1="-123.26" y1="277.1" x2="360.6" y2="-206.76"/><line class="cls-9" x1="-302.72" y1="540.86" x2="181.15" y2="57"/><line class="cls-9" x1="208.1" y1="58.22" x2="-67.47" y2="58.22"/><line class="cls-9" x1="210.95" y1="63.53" x2="-84.4" y2="63.53"/><line class="cls-9" x1="200.28" y1="74.15" x2="-39.45" y2="74.15"/><line class="cls-9" x1="200.28" y1="79.46" x2="70.41" y2="79.46"/><line class="cls-9" x1="208.1" y1="53.22" x2="-53.06" y2="53.22"/><line class="cls-9" x1="200.28" y1="79.46" x2="-35.18" y2="79.46"/><line class="cls-9" x1="208.1" y1="89.77" x2="-35.18" y2="89.77"/><line class="cls-9" x1="210.95" y1="95.08" x2="-60.81" y2="95.08"/><line class="cls-9" x1="223.4" y1="100.39" x2="-47.01" y2="100.39"/><line class="cls-9" x1="200.28" y1="105.7" x2="-39.45" y2="105.7"/><line class="cls-9" x1="208.1" y1="84.77" x2="-53.06" y2="84.77"/><line class="cls-9" x1="200.28" y1="116.32" x2="-125.11" y2="116.32"/><line class="cls-9" x1="200.28" y1="111.01" x2="-35.18" y2="111.01"/><line class="cls-9" x1="116.44" y1="-58.2" x2="116.44" y2="200.69"/><line class="cls-9" x1="121.75" y1="-59.74" x2="121.75" y2="206.15"/><line class="cls-9" x1="127.06" y1="-59.74" x2="127.06" y2="206.15"/><line class="cls-9" x1="111.13" y1="-58.2" x2="111.13" y2="197.46"/><line class="cls-9" x1="105.82" y1="-58.2" x2="105.82" y2="200.69"/><line class="cls-9" x1="100.51" y1="-58.2" x2="100.51" y2="223.79"/><line class="cls-9" x1="95.27" y1="-58.2" x2="95.27" y2="200.69"/><line class="cls-9" x1="100.58" y1="-59.74" x2="100.58" y2="206.15"/><line class="cls-9" x1="89.96" y1="-58.2" x2="89.96" y2="197.46"/><line class="cls-9" x1="84.65" y1="-58.2" x2="84.65" y2="200.69"/><line class="cls-9" x1="79.34" y1="-58.2" x2="79.34" y2="223.79"/><rect class="cls-9" x="79.24" y="53.22" width="47.82" height="63.1"/><line class="cls-9" x1="164.17" y1="-58.2" x2="164.17" y2="200.69"/><line class="cls-9" x1="169.48" y1="-59.74" x2="169.48" y2="206.15"/><line class="cls-9" x1="174.79" y1="-59.74" x2="174.79" y2="206.15"/><line class="cls-9" x1="158.86" y1="-58.2" x2="158.86" y2="197.46"/><line class="cls-9" x1="153.55" y1="-58.2" x2="153.55" y2="200.69"/><line class="cls-9" x1="148.24" y1="-58.2" x2="148.24" y2="223.79"/><line class="cls-9" x1="143" y1="-58.2" x2="143" y2="200.69"/><line class="cls-9" x1="148.31" y1="-59.74" x2="148.31" y2="206.15"/><line class="cls-9" x1="137.69" y1="-58.2" x2="137.69" y2="197.46"/><line class="cls-9" x1="132.37" y1="-58.2" x2="132.37" y2="200.69"/><line class="cls-9" x1="127.06" y1="-58.2" x2="127.06" y2="223.79"/><line class="cls-9" x1="20.99" y1="-58.2" x2="20.99" y2="200.69"/><line class="cls-9" x1="26.3" y1="-59.74" x2="26.3" y2="206.15"/><line class="cls-9" x1="31.61" y1="-59.74" x2="31.61" y2="206.15"/><line class="cls-9" x1="15.68" y1="-58.2" x2="15.68" y2="197.46"/><line class="cls-9" x1="10.37" y1="-58.2" x2="10.37" y2="200.69"/><line class="cls-9" x1="5.06" y1="-58.2" x2="5.06" y2="223.79"/><line class="cls-9" x1="5.12" y1="-59.74" x2="5.12" y2="206.15"/><line class="cls-9" x1="68.72" y1="-58.2" x2="68.72" y2="200.69"/><line class="cls-9" x1="74.03" y1="-59.74" x2="74.03" y2="206.15"/><line class="cls-9" x1="79.34" y1="-59.74" x2="79.34" y2="206.15"/><line class="cls-9" x1="63.4" y1="-58.2" x2="63.4" y2="197.46"/><line class="cls-9" x1="58.09" y1="-58.2" x2="58.09" y2="200.69"/><line class="cls-9" x1="52.78" y1="-58.2" x2="52.78" y2="223.79"/><line class="cls-9" x1="47.54" y1="-58.2" x2="47.54" y2="200.69"/><line class="cls-9" x1="52.85" y1="-59.74" x2="52.85" y2="206.15"/><line class="cls-9" x1="42.23" y1="-58.2" x2="42.23" y2="197.46"/><line class="cls-9" x1="36.92" y1="-58.2" x2="36.92" y2="200.69"/><line class="cls-9" x1="31.61" y1="-58.2" x2="31.61" y2="223.79"/><line class="cls-9" x1="210.95" y1="0.43" x2="-84.4" y2="0.43"/><line class="cls-9" x1="223.4" y1="5.74" x2="-43.45" y2="5.74"/><line class="cls-9" x1="200.28" y1="11.05" x2="-39.45" y2="11.05"/><line class="cls-9" x1="200.28" y1="16.36" x2="70.41" y2="16.36"/><line class="cls-9" x1="200.28" y1="16.36" x2="-35.18" y2="16.36"/><line class="cls-9" x1="208.1" y1="26.67" x2="-35.18" y2="26.67"/><line class="cls-9" x1="210.95" y1="31.98" x2="-60.81" y2="31.98"/><line class="cls-9" x1="223.4" y1="37.29" x2="-47.01" y2="37.29"/><line class="cls-9" x1="200.28" y1="42.6" x2="-39.45" y2="42.6"/><line class="cls-9" x1="208.1" y1="21.67" x2="-53.06" y2="21.67"/><line class="cls-9" x1="200.28" y1="53.22" x2="-125.11" y2="53.22"/><line class="cls-9" x1="200.28" y1="47.91" x2="-35.18" y2="47.91"/><line class="cls-9" x1="208.1" y1="121.32" x2="-67.47" y2="121.32"/><line class="cls-9" x1="210.95" y1="126.63" x2="-84.4" y2="126.63"/><line class="cls-9" x1="208.1" y1="116.32" x2="-53.06" y2="116.32"/><line class="cls-9" x1="-63" y1="374.22" x2="341.51" y2="-30.27"/><line class="cls-9" x1="-142.36" y1="453.58" x2="341.51" y2="-30.27"/><line class="cls-9" x1="-158.13" y1="474.29" x2="325.74" y2="-9.56"/><line class="cls-9" x1="-175.08" y1="496.56" x2="308.78" y2="12.7"/><line class="cls-9" x1="-192.04" y1="518.82" x2="291.83" y2="34.97"/><line class="cls-9" x1="-208.99" y1="541.09" x2="274.87" y2="57.23"/><line class="cls-9" x1="-158.13" y1="474.29" x2="325.74" y2="-9.56"/><line class="cls-9" x1="-125.2" y1="431.06" x2="358.66" y2="-52.8"/><line class="cls-9" x1="-108.05" y1="408.53" x2="375.82" y2="-75.33"/><line class="cls-9" x1="-92.11" y1="387.6" x2="391.75" y2="-96.25"/><line class="cls-9" x1="-259.49" y1="607.4" x2="224.37" y2="123.55"/><line class="cls-9" x1="-242.34" y1="584.87" x2="241.53" y2="101.02"/><line class="cls-9" x1="-226.4" y1="563.95" x2="257.46" y2="80.09"/><line class="cls-9" x1="40.14" y1="213.32" x2="444.65" y2="-191.18"/><line class="cls-9" x1="-39.22" y1="292.68" x2="444.65" y2="-191.18"/><line class="cls-9" x1="-54.99" y1="313.39" x2="428.88" y2="-170.47"/><line class="cls-9" x1="-71.94" y1="335.65" x2="411.92" y2="-148.2"/><line class="cls-9" x1="-88.9" y1="357.92" x2="394.97" y2="-125.94"/><line class="cls-9" x1="-105.85" y1="380.18" x2="378.01" y2="-103.68"/><line class="cls-9" x1="-54.99" y1="313.39" x2="428.88" y2="-170.47"/><line class="cls-9" x1="-22.06" y1="270.15" x2="461.8" y2="-213.7"/><line class="cls-9" x1="-4.91" y1="247.62" x2="478.96" y2="-236.23"/><line class="cls-9" x1="11.03" y1="226.7" x2="494.89" y2="-257.16"/><line class="cls-9" x1="-173.5" y1="469.02" x2="310.36" y2="-14.83"/><line class="cls-9" x1="-156.35" y1="446.5" x2="327.51" y2="-37.36"/><line class="cls-9" x1="-139.19" y1="423.97" x2="344.67" y2="-59.89"/><line class="cls-9" x1="-123.26" y1="403.04" x2="360.6" y2="-80.81"/><line class="cls-9" x1="-63" y1="374.22" x2="341.51" y2="-30.27"/><line class="cls-9" x1="-142.36" y1="453.58" x2="341.51" y2="-30.27"/><line class="cls-9" x1="-158.13" y1="474.29" x2="325.74" y2="-9.56"/><line class="cls-9" x1="-175.08" y1="496.56" x2="308.78" y2="12.7"/><line class="cls-9" x1="-192.04" y1="518.82" x2="291.83" y2="34.97"/><line class="cls-9" x1="-208.99" y1="541.09" x2="274.87" y2="57.23"/><line class="cls-9" x1="-158.13" y1="474.29" x2="325.74" y2="-9.56"/><line class="cls-9" x1="-125.2" y1="431.06" x2="358.66" y2="-52.8"/><line class="cls-9" x1="-108.05" y1="408.53" x2="375.82" y2="-75.33"/><line class="cls-9" x1="-92.11" y1="387.6" x2="391.75" y2="-96.25"/><line class="cls-9" x1="-259.49" y1="607.4" x2="224.37" y2="123.55"/><line class="cls-9" x1="-242.34" y1="584.87" x2="241.53" y2="101.02"/><line class="cls-9" x1="-226.4" y1="563.95" x2="257.46" y2="80.09"/><line class="cls-9" x1="40.14" y1="213.32" x2="444.65" y2="-191.18"/><line class="cls-9" x1="-39.22" y1="292.68" x2="444.65" y2="-191.18"/><line class="cls-9" x1="-54.99" y1="313.39" x2="428.88" y2="-170.47"/><line class="cls-9" x1="-71.94" y1="335.65" x2="411.92" y2="-148.2"/><line class="cls-9" x1="-88.9" y1="357.92" x2="394.97" y2="-125.94"/><line class="cls-9" x1="-105.85" y1="380.18" x2="378.01" y2="-103.68"/><line class="cls-9" x1="-54.99" y1="313.39" x2="428.88" y2="-170.47"/><line class="cls-9" x1="-22.06" y1="270.15" x2="461.8" y2="-213.7"/><line class="cls-9" x1="-4.91" y1="247.62" x2="478.96" y2="-236.23"/><line class="cls-9" x1="11.03" y1="226.7" x2="494.89" y2="-257.16"/><line class="cls-9" x1="-173.5" y1="469.02" x2="310.36" y2="-14.83"/><line class="cls-9" x1="-156.35" y1="446.5" x2="327.51" y2="-37.36"/><line class="cls-9" x1="-139.19" y1="423.97" x2="344.67" y2="-59.89"/><line class="cls-9" x1="-123.26" y1="403.04" x2="360.6" y2="-80.81"/><line class="cls-9" x1="-65.35" y1="124.17" x2="339.16" y2="-280.33"/><line class="cls-9" x1="-144.71" y1="203.53" x2="339.16" y2="-280.33"/><line class="cls-9" x1="-160.48" y1="224.24" x2="323.39" y2="-259.62"/><line class="cls-9" x1="-177.43" y1="246.5" x2="306.43" y2="-237.35"/><line class="cls-9" x1="-194.39" y1="268.77" x2="289.48" y2="-215.09"/><line class="cls-9" x1="-211.34" y1="291.03" x2="272.52" y2="-192.82"/><line class="cls-9" x1="-160.48" y1="224.24" x2="323.39" y2="-259.62"/><line class="cls-9" x1="-127.55" y1="181" x2="356.31" y2="-302.85"/><line class="cls-9" x1="-110.4" y1="158.47" x2="373.47" y2="-325.38"/><line class="cls-9" x1="-94.46" y1="137.55" x2="389.4" y2="-346.31"/><line class="cls-9" x1="-279" y1="379.88" x2="204.87" y2="-103.98"/><line class="cls-6" x1="-294.77" y1="400.58" x2="189.1" y2="-83.27"/><line class="cls-9" x1="-261.84" y1="357.35" x2="222.02" y2="-126.51"/><line class="cls-9" x1="-244.69" y1="334.82" x2="239.18" y2="-149.04"/><line class="cls-9" x1="-228.75" y1="313.89" x2="255.11" y2="-169.96"/><line class="cls-9" x1="-41.57" y1="42.62" x2="442.3" y2="-441.23"/><line class="cls-9" x1="-57.34" y1="63.33" x2="426.53" y2="-420.52"/><line class="cls-9" x1="-74.29" y1="85.6" x2="409.57" y2="-398.26"/><line class="cls-9" x1="-91.24" y1="107.86" x2="392.62" y2="-375.99"/><line class="cls-9" x1="-108.2" y1="130.13" x2="375.67" y2="-353.73"/><line class="cls-9" x1="-57.34" y1="63.33" x2="426.53" y2="-420.52"/><line class="cls-9" x1="-24.41" y1="20.1" x2="459.45" y2="-463.76"/><line class="cls-9" x1="-175.85" y1="218.97" x2="308.01" y2="-264.89"/><line class="cls-9" x1="-158.7" y1="196.44" x2="325.16" y2="-287.41"/><line class="cls-9" x1="-141.54" y1="173.91" x2="342.32" y2="-309.94"/><line class="cls-9" x1="-125.61" y1="152.99" x2="358.26" y2="-330.87"/></g></g><path id="BLACK" class="cls-10" d="M231.14,117.19H15.64a3.83,3.83,0,0,1-3.9-3.92L22,14.42a3.84,3.84,0,0,1,3.89-3.61H240.36a3.83,3.83,0,0,1,3.9,3.92L235,113.58A3.84,3.84,0,0,1,231.14,117.19Zm13.28-113H22.16C18.25,4.16,15,7,14.89,10.55L4.3,116.93a6.37,6.37,0,0,0,2,4.87,7.64,7.64,0,0,0,5.24,2H234.88a7,7,0,0,0,7.27-6.39L251.7,11.07a6.37,6.37,0,0,0-2-4.87,7.65,7.65,0,0,0-5.25-2Z"/></g><path id="ABILITY" class="cls-13" d="M237.16,35.85A19.12,19.12,0,1,1,218,16.73,19.11,19.11,0,0,1,237.16,35.85Z"/><g id="STATS"><rect class="cls-14" x="29.13" y="15.05" width="33.06" height="26.94"/><path class="cls-10" d="M61.2,16.05V41H30.13V16.05H61.2m2-2H28.13V43H63.2V14.05Z"/><polygon class="cls-15" points="34.68 19.18 29.55 14.05 34.68 8.93 56.66 8.93 61.78 14.05 56.66 19.18 34.68 19.18"/><path class="cls-10" d="M56.24,9.93l4.13,4.12-4.13,4.13H35.09L31,14.05l4.13-4.12H56.24m.83-2H34.26l-6.13,6.12,6.13,6.13H57.07l6.13-6.13L57.07,7.93Z"/><rect class="cls-14" x="29.13" y="51.62" width="33.06" height="26.94"/><path class="cls-10" d="M61.2,52.62V77.55H30.13V52.62H61.2m2-2H28.13V79.55H63.2V50.62Z"/><polygon class="cls-15" points="34.68 55.74 29.55 50.62 34.68 45.49 56.66 45.49 61.78 50.62 56.66 55.74 34.68 55.74"/><path class="cls-10" d="M56.24,46.49l4.13,4.13-4.13,4.12H35.09L31,50.62l4.13-4.13H56.24m.83-2H34.26l-6.13,6.13,6.13,6.12H57.07l6.13-6.12-6.13-6.13Z"/><polygon class="cls-14" points="40.22 119.11 29.14 98.58 29.14 88.18 62.2 88.18 62.2 98.58 51.11 119.11 40.22 119.11"/><path class="cls-10" d="M61.2,89.18v9.15L50.52,118.11h-9.7L30.13,98.33V89.18H61.2m2-2H28.13V98.84l11.49,21.27H51.71L63.2,98.84V87.18Z"/><polygon class="cls-15" points="34.68 92.31 29.55 87.18 34.68 82.05 56.66 82.05 61.78 87.18 56.66 92.31 34.68 92.31"/><path class="cls-10" d="M56.24,83.05l4.13,4.13-4.13,4.13H35.09L31,87.18l4.13-4.13H56.24m.83-2H34.26l-6.13,6.13,6.13,6.13H57.07l6.13-6.13-6.13-6.13Z"/></g></svg>