<svg id="PLAYSPACE" xmlns="http://www.w3.org/2000/svg" xmlns:xlink="http://www.w3.org/1999/xlink" viewBox="0 0 792.03 1080"><defs><style>.cls-1{fill:#fff;}.cls-2{fill:url(#linear-gradient);}.cls-3{fill:#797e8f;}.cls-4{fill:#6e6f7b;}.cls-5{fill:#595a65;}.cls-6{fill:#a9aeb7;}.cls-7{fill:#c8cad0;}.cls-8{fill:#c8eaf8;}</style><linearGradient id="linear-gradient" x1="446.77" y1="184.6" x2="446.77" y2="875.13" gradientUnits="userSpaceOnUse"><stop offset="0" stop-color="#3d465a"/><stop offset="1" stop-color="#414256"/></linearGradient></defs><title>PCBOARD</title><g id="CARDSPACE"><path class="cls-1" d="M1147,1080h-19V835.71a11.07,11.07,0,0,1,3.26-7.87l.55-.55,91.93-91.93V651.23l-44.39-42.13V472l44.39-42.13V343.64l-92.48-92.48a11.07,11.07,0,0,1-3.26-7.88V0h19V240l95.74,95.74v86.36h.06v6l-.06,6V647l.12,11.93h-.12v84.31L1147,839Zm44.35-476,39.39,37.38V439.77l-39.39,37.38Z" transform="translate(-1127.97)"/><polygon class="cls-2" points="101.5 0 101.5 214.14 197.25 309.88 197.25 769.12 101.5 864.86 101.5 1080 792.03 1080 792.03 0 101.5 0"/><polygon class="cls-3" points="50 1080 13 1080 13 836.49 108.75 740.74 108.75 338.26 13 242.51 13 0 50 0 50 227.19 145.75 322.93 145.75 756.07 50 851.81 50 1080"/><polygon class="cls-4" points="50 227.19 13 242.51 108.75 338.26 145.75 322.93 50 227.19"/><polygon class="cls-4" points="50 851.81 13 836.49 108.75 740.74 145.75 756.07 50 851.81"/><polygon class="cls-5" points="145.75 322.93 145.75 756.07 108.75 740.74 108.75 338.26 145.75 322.93"/><polygon class="cls-6" points="101.5 214.14 101.5 0 50 0 50 227.19 145.75 322.93 145.75 756.07 145.75 756.07 50 851.81 50 1080 101.5 1080 101.5 864.86 197.25 769.12 197.25 309.88 101.5 214.14"/><path class="cls-3" d="M1229.47,0m0,0V214.14l95.74,95.75V769.11l-95.74,95.75V1080h12V869.83l92.23-92.23,3.51-3.51V304.91l-3.51-3.51-92.23-92.23V0Z" transform="translate(-1127.97)"/><path class="cls-7" d="M1186,1080V857.2l100.74-95.75V317.55L1186,221.8V0h-8V227.19l95.74,95.74V756.07h0L1178,851.81V1080Z" transform="translate(-1127.97)"/><polygon class="cls-3" points="134.7 646.76 91.88 603.95 91.88 477.15 134.7 434.34 134.7 646.76"/><rect class="cls-4" x="63.35" y="477.15" width="28.53" height="126.8"/><polygon class="cls-5" points="134.7 434.34 108.75 434.08 63.35 477.15 91.88 477.15 134.7 434.34"/><polygon class="cls-5" points="134.7 646.76 108.75 647.02 63.35 603.95 91.88 603.95 134.7 646.76"/><rect class="cls-8" x="71.53" y="493.91" width="12.17" height="91.17" rx="6.09"/><polygon class="cls-5" points="91.88 477.15 134.7 434.34 108.75 434.08 63.35 477.15 63.35 603.95 108.75 647.02 134.7 646.76 91.88 603.95 91.88 477.15"/></g></svg>