<?xml version="1.0" encoding="utf-8"?>
<!-- Generator: Adobe Illustrator 23.0.1, SVG Export Plug-In . SVG Version: 6.00 Build 0)  -->
<svg version="1.1"
	 id="svg8" inkscape:version="0.92.4 (5da689c313, 2019-01-14)" sodipodi:docname="Exostellar.svg" xmlns:cc="http://creativecommons.org/ns#" xmlns:dc="http://purl.org/dc/elements/1.1/" xmlns:inkscape="http://www.inkscape.org/namespaces/inkscape" xmlns:rdf="http://www.w3.org/1999/02/22-rdf-syntax-ns#" xmlns:sodipodi="http://sodipodi.sourceforge.net/DTD/sodipodi-0.dtd" xmlns:svg="http://www.w3.org/2000/svg"
	 xmlns="http://www.w3.org/2000/svg" xmlns:xlink="http://www.w3.org/1999/xlink" x="0px" y="0px" viewBox="0 0 595.3 841.9"
	 style="enable-background:new 0 0 595.3 841.9;" xml:space="preserve">
<style type="text/css">
	.st0{fill:#FFFFFF;}
	.st1{clip-path:url(#SVGID_2_);}
	.st2{fill:url(#rect844_1_);}
	.st3{opacity:0.6;fill:url(#MOON_4_);}
	.st4{fill:#C38E58;}
	.st5{fill:#FFFAC2;}
	.st6{opacity:0.9;}
	.st7{fill:#668264;}
	.st8{clip-path:url(#SVGID_4_);fill:url(#SVGID_5_);}
	.st9{clip-path:url(#SVGID_7_);fill:url(#SVGID_8_);}
	.st10{fill:#3D5887;stroke:#323A6E;stroke-miterlimit:10;}
	.st11{clip-path:url(#FLAG_3_);fill:#3C4B81;}
	.st12{clip-path:url(#FLAG_3_);fill:#343C62;}
	.st13{clip-path:url(#FLAG_3_);fill:#3D5887;}
	.st14{fill:#283246;}
	.st15{fill:#1B2334;}
	.st16{fill:#003862;}
	.st17{fill:#3F4673;}
	.st18{opacity:0.6;}
	.st19{fill:#363639;}
	.st20{clip-path:url(#SVGID_10_);}
	.st21{fill:url(#SVGID_11_);}
	.st22{clip-path:url(#SVGID_10_);fill:#EDD0B0;}
	.st23{fill:#EDD0B0;stroke:#003862;stroke-width:2;stroke-miterlimit:10;}
	.st24{fill:#1B2334;stroke:#003862;stroke-width:5;stroke-miterlimit:10;}
	.st25{fill:#394F78;}
	.st26{opacity:0.8;}
	.st27{fill:none;stroke:#363639;stroke-width:3;stroke-miterlimit:10;}
	.st28{clip-path:url(#SVGID_15_);}
	.st29{fill:url(#SVGID_16_);}
	.st30{fill:#EDD0B0;stroke:#003862;stroke-width:3;stroke-miterlimit:10;}
	.st31{fill:#EDD0B0;}
	.st32{fill:url(#SVGID_17_);}
	.st33{clip-path:url(#SVGID_19_);fill:url(#path1140_1_);}
	.st34{clip-path:url(#SVGID_21_);}
	.st35{fill:url(#SVGID_22_);}
	.st36{fill:#1B2334;stroke:#363639;stroke-width:5;stroke-miterlimit:10;}
	.st37{fill:url(#SVGID_23_);}
	.st38{fill:#CC1E54;}
	.st39{clip-path:url(#SVGID_25_);}
	.st40{clip-path:url(#SVGID_27_);}
	.st41{clip-path:url(#SVGID_25_);fill:#EDD0B0;}
	.st42{fill:#EDD0B0;stroke:#003862;stroke-width:8;stroke-miterlimit:10;}
	.st43{stroke:#363639;stroke-width:12.2604;stroke-miterlimit:10;}
	.st44{stroke:#363639;stroke-width:7;stroke-miterlimit:10;}
	.st45{fill:#A92223;stroke:#363639;stroke-width:7;stroke-miterlimit:10;}
	.st46{fill:url(#SVGID_30_);}
	.st47{fill:url(#SVGID_31_);}
</style>
<g id="INSIGNIA">
	<g>
		<g>
			<path class="st0" d="M406.8,172.7c17.6,0,32,14.4,32,32s-14.4,32-32,32s-32-14.4-32-32S389.1,172.7,406.8,172.7 M406.8,168.7
				c-19.9,0-36,16.1-36,36s16.1,36,36,36c19.9,0,36-16.1,36-36S426.7,168.7,406.8,168.7L406.8,168.7z"/>
		</g>
		<path class="st0" d="M436.6,206.4c-1.9,0-6.7,4.3-7.9,1.9c-1.2-2.5,3-8.5,2.8-11.2c-0.2-2.7-10.5-5.4-2.2-6.7
			c3.3-0.5,5.6-4.3,5.4-8.4c-6.6-8.1-16.6-13.3-27.9-13.3c-14.6,0-27.1,8.7-32.8,21.2c1.4,1.7,4.2,3.4,9.3,2.5
			c13.5-2.5,18.9,1.3,16,3.8c-4.6,4-12.6,4.6-10.9,7.6c3.4,6.3-5,6.3-0.9,9.5c4.1,3.2,8.9,13.4,0.9,10.6c-6.5-2.3-4.7-8.5-8.8-8.2
			c-3.2,0.2-5.3,0.9-6.5,1.7c1.4,3.7,3.4,7.2,5.9,10.2c0,0,0,0,0,0c3.3-0.9,10.6,1.3,12.7,0.6c11.2-3.8,9.3,1.8,10,3.6
			c0.8,2.2,2.8,9.7,11.6,8.3c13.4-2.5,24.2-12.3,28-25.2C442,211.3,440.5,206.4,436.6,206.4z M423.4,198.4
			c-6.3,0.2-9.8-5.6-11.7-6.1c-1.9-0.5-4.5,2.9-5.6-0.1c-1-2.8-1.6-5.5,1.1-7.7c2.8-2.2-2.9-6.6,1.2-7.2c4.1-0.5,2,8.7,7.3,13.1
			C421.1,194.8,427,198.3,423.4,198.4z"/>
	</g>
	<path class="st0" d="M338.6,226.9c0,5,32.4,19.3,32.4,19.3c15.3,0,35.8,19.5,35.8,19.5s20.5-19.5,35.8-19.5
		c0,0,32.4-14.5,32.4-19.3c0,0-17.1,11.5-36.5,11.5c-7.9,0-12.9,1.3-16.7,2.8c-0.6,0.2-1.2,0.5-1.7,0.7c-0.5,0.2-1.1,0.5-1.6,0.7
		c-0.5,0.2-1,0.5-1.5,0.7c-0.7,0.3-1.4,0.7-2.2,1c-1.2,0.5-8.1,4.8-8.1,4.8s-6.9-4.3-8.1-4.8c-0.7-0.3-1.4-0.6-2.2-1
		c-0.5-0.2-1-0.5-1.5-0.7c-4.3-2-9.7-4.2-20-4.2C355.7,238.4,338.6,226.9,338.6,226.9z"/>
	<g>
		<path class="st0" d="M464.9,257.3c0,4.9-8.9,8.9-8.9,8.9s-8.9-4-8.9-8.9s8.9-13.9,8.9-13.9S464.9,252.4,464.9,257.3z"/>
	</g>
	<g>
		<path class="st0" d="M366.4,257.3c0,4.9-8.9,8.9-8.9,8.9s-8.9-4-8.9-8.9s8.9-13.9,8.9-13.9S366.4,252.4,366.4,257.3z"/>
	</g>
	<path class="st0" d="M429,170.4c0,0-3.6-3.5-9.1-7c-7.6-4.8-12.6-9.4-12.6-20.1c0,10.7-5,15.3-12.6,20.1c-5.5,3.5-9.1,7-9.1,7
		c4.2-2.7,11.7-5.8,21.7-5.9C417.3,164.6,424.8,167.7,429,170.4z"/>
	<g>
		<g>
			<path class="st0" d="M406.8,172.7c17.6,0,32,14.4,32,32s-14.4,32-32,32s-32-14.4-32-32S389.1,172.7,406.8,172.7 M406.8,168.7
				c-19.9,0-36,16.1-36,36s16.1,36,36,36c19.9,0,36-16.1,36-36S426.7,168.7,406.8,168.7L406.8,168.7z"/>
		</g>
		<path class="st0" d="M436.6,206.4c-1.9,0-6.7,4.3-7.9,1.9c-1.2-2.5,3-8.5,2.8-11.2c-0.2-2.7-10.5-5.4-2.2-6.7
			c3.3-0.5,5.6-4.3,5.4-8.4c-6.6-8.1-16.6-13.3-27.9-13.3c-14.6,0-27.1,8.7-32.8,21.2c1.4,1.7,4.2,3.4,9.3,2.5
			c13.5-2.5,18.9,1.3,16,3.8c-4.6,4-12.6,4.6-10.9,7.6c3.4,6.3-5,6.3-0.9,9.5c4.1,3.2,8.9,13.4,0.9,10.6c-6.5-2.3-4.7-8.5-8.8-8.2
			c-3.2,0.2-5.3,0.9-6.5,1.7c1.4,3.7,3.4,7.2,5.9,10.2c0,0,0,0,0,0c3.3-0.9,10.6,1.3,12.7,0.6c11.2-3.8,9.3,1.8,10,3.6
			c0.8,2.2,2.8,9.7,11.6,8.3c13.4-2.5,24.2-12.3,28-25.2C442,211.3,440.5,206.4,436.6,206.4z M423.4,198.4
			c-6.3,0.2-9.8-5.6-11.7-6.1c-1.9-0.5-4.5,2.9-5.6-0.1c-1-2.8-1.6-5.5,1.1-7.7c2.8-2.2-2.9-6.6,1.2-7.2c4.1-0.5,2,8.7,7.3,13.1
			C421.1,194.8,427,198.3,423.4,198.4z"/>
	</g>
	<path class="st0" d="M430.8,293.7c0,0-8.2-9.7-9.7-9.7c0,0-5,0-5,0c-3.4,0-6.1-13.5-4.8-17c-1.3,0.8-2.9,3.2-4,3.2
		c-1.1,0-2.7-2.4-4-3.2c1.3,3.5-1.5,17-4.8,17c0,0-5,0-5,0c-1.5,0-9.7,9.7-9.7,9.7s5.3,1.6,23,1.6c0.2,0,0.3,0,0.5,0
		c0.2,0,0.3,0,0.5,0C425.5,295.3,430.8,293.7,430.8,293.7z"/>
</g>
<g id="CARDART">
	<defs>
		<rect id="SVGID_1_" y="-0.7" width="595.3" height="842.6"/>
	</defs>
	<clipPath id="SVGID_2_">
		<use xlink:href="#SVGID_1_"  style="overflow:visible;"/>
	</clipPath>
	<g class="st1">
		<g id="SKY" inkscape:groupmode="layer" inkscape:label="SKY">
			
				<radialGradient id="rect844_1_" cx="92.6137" cy="165.3388" r="107.0223" gradientTransform="matrix(20.0518 4.562568e-02 -1.961670e-02 12.5233 -1556.3309 -1250.0665)" gradientUnits="userSpaceOnUse">
				<stop  offset="0" style="stop-color:#AB2314"/>
				<stop  offset="0.3864" style="stop-color:#3A2121"/>
				<stop  offset="1" style="stop-color:#6DB574"/>
			</radialGradient>
			<rect id="rect844" x="-0.3" y="-0.5" class="st2" width="595.6" height="841.9"/>
		</g>
		<g id="SUN">
			<radialGradient id="MOON_4_" cx="297.5" cy="79.8626" r="226.7655" gradientUnits="userSpaceOnUse">
				<stop  offset="0.3991" style="stop-color:#E2C799;stop-opacity:0.7"/>
				<stop  offset="1" style="stop-color:#69160E;stop-opacity:0"/>
			</radialGradient>
			<circle id="MOON_2_" class="st3" cx="297.5" cy="79.9" r="226.8"/>
			<circle id="MOON" class="st4" cx="297.5" cy="79.9" r="96.1"/>
			<circle id="MOON_3_" class="st5" cx="297.5" cy="79.9" r="88.4"/>
			<circle id="MOON_1_" class="st0" cx="297.5" cy="79.9" r="80.6"/>
		</g>
		<g id="CLOUD_1_" class="st6">
			<g>
				<path class="st7" d="M615.7-10.7c71-14.4,19.7,106.9,9.6,129.4c-1,2.2-3.1,3.7-5.5,3.8c-18.5,1.3-96.4,4.4-96.4-33.1
					c0-17.1-43.3-6.6-43.3-19c0-6.3,22.5-4.9,22-12c-0.5-7.1,21.3-7.4,21.3-11c0-3.7-2.4-6.3-66.2-6.3c-69.9,0,1.4-7.3,1.9-14.3
					s25.3-8.2,25.5-11.7C486.3-25.7,537.5,5.1,615.7-10.7z"/>
			</g>
			<g>
				<defs>
					<path id="SVGID_3_" d="M615.7-10.7c71-14.4,19.7,106.9,9.6,129.4c-1,2.2-3.1,3.7-5.5,3.8c-18.5,1.3-96.4,4.4-96.4-33.1
						c0-17.1-43.3-6.6-43.3-19c0-6.3,22.5-4.9,22-12c-0.5-7.1,21.3-7.4,21.3-11c0-3.7-2.4-6.3-66.2-6.3c-69.9,0,1.4-7.3,1.9-14.3
						s25.3-8.2,25.5-11.7C486.3-25.7,537.5,5.1,615.7-10.7z"/>
				</defs>
				<clipPath id="SVGID_4_">
					<use xlink:href="#SVGID_3_"  style="overflow:visible;"/>
				</clipPath>
				
					<radialGradient id="SVGID_5_" cx="985.033" cy="739.6095" r="258.5216" gradientTransform="matrix(-1 0 0 -1.2195 1536.3976 1001.9694)" gradientUnits="userSpaceOnUse">
					<stop  offset="0" style="stop-color:#546750"/>
					<stop  offset="1" style="stop-color:#160000"/>
				</radialGradient>
				<path class="st8" d="M574.5,205.4l113.6,27c0,0,67-234.9-30.3-234.9c-5.2,0-6.9,0.3-15.1,0.3c-53.5,0-32.4,17.1-86.3,17.1
					c-45.4,0-45.4,7.8-45.4,10.7c0,2.7,3.9,6.6,18.9,6.6c4.2,0,57.7-1.2,57.7,10.5c0,6.7-17.7,2-17.7,16.6c0,7.2-45.1,0.9-45.1,12.7
					c0,2.8,20.7,5.8,31,5.8c11,0-17.5,16.7,31.2,39.6c5.2,2.5,26.5,19.5,33.7,19.5L574.5,205.4z"/>
			</g>
		</g>
		<g id="CLOUD" class="st6">
			<path id="C" class="st7" d="M-41.6,266.4c0,0,61.9,0,61.9-9.7c0-4,18.3-0.5,18.3-6.6s2.2-7.7-16.1-7.7s-3.7-46,32.1-46
				c10.8,0,28.6-0.1,29.4-7.6c0.7-7.5,18.8,0.4,18.8-13.2c0-4.7-33.6-9.1-34.2-18.3s-63-19.7,31.1-19.7c85.8,0,89.1-3.6,89.1-8.3
				c0-4.8-29.2-5.2-28.6-14.4s-29.7-7.3-29.7-15.6c0-16.3,58.3-11.2,58.3-15.3s-83-14.3-83-28.1S151,45.7,151,29.6
				S88.4,17.3,80.5-10.5C79.1-15.3-44.3-16-44.3-16L-41.6,266.4z"/>
			<g>
				<g>
					<defs>
						<path id="SVGID_6_" d="M-41.6,266.4c0,0,61.9,0,61.9-9.7c0-4,18.3-0.5,18.3-6.6s2.2-7.7-16.1-7.7s-3.7-46,32.1-46
							c10.8,0,28.6-0.1,29.4-7.6c0.7-7.5,18.8,0.4,18.8-13.2c0-4.7-33.6-9.1-34.2-18.3s-63-19.7,31.1-19.7c85.8,0,89.1-3.6,89.1-8.3
							c0-4.8-29.2-5.2-28.6-14.4s-29.7-7.3-29.7-15.6c0-16.3,58.3-11.2,58.3-15.3s-83-14.3-83-28.1S151,45.7,151,29.6
							S88.4,17.3,80.5-10.5C79.1-15.3-44.3-16-44.3-16L-41.6,266.4z"/>
					</defs>
					<clipPath id="SVGID_7_">
						<use xlink:href="#SVGID_6_"  style="overflow:visible;"/>
					</clipPath>
					
						<radialGradient id="SVGID_8_" cx="47.6773" cy="687.4836" r="350.9388" gradientTransform="matrix(0.8987 0 0 -1 20.231 842)" gradientUnits="userSpaceOnUse">
						<stop  offset="0" style="stop-color:#546750"/>
						<stop  offset="1" style="stop-color:#160000"/>
					</radialGradient>
					<path class="st9" d="M36.7,199.5c8.7,0,36.4-16.1-12-22.2c-9-0.2-4.8-9.3-14.9-11.1c-13.8-2.4-20-4.2-20-11.8
						c0-9.8,21.1-22,63-22c12.6,0,56-0.6,56-3.7c0-13.1-83.7-8.8-83.7-16.8s28.1-6.2,35.5-6.2c18.3,0,26.3-2.4,26.3-5.4
						c0-3.2-11.7-13.8-58.6-13.8c-31.2,0-63.2-36.8-63.2-42.9c0-11.1-12-0.3-18.3-0.3C-171.5,43.3-90,304.2-90,304.2l138.3-30
						L36.7,199.5z"/>
				</g>
			</g>
		</g>
		<path id="FLAG" class="st10" d="M482.2,109.6c0,0,14.5-69-24.9-81.8c-63-20.5-81.1,24.5-125.4,28c-24.7,2-34.2-3.5-34.2-3.5
			s-26.9,50.4-16.7,113.4c0,0,32-51.7,102.8-33S440,250.8,440,250.8L482.2,109.6z"/>
		<g>
			<defs>
				<path id="FLAG_2_" d="M482.2,109.6c0,0,14.5-69-24.9-81.8c-63-20.5-81.1,22.5-125.4,26c-24.7,2-34.2-1.5-34.2-1.5
					s-26.9,50.4-16.7,113.4c0,0,32-51.7,102.8-33S440,250.8,440,250.8L482.2,109.6z"/>
			</defs>
			<clipPath id="FLAG_3_">
				<use xlink:href="#FLAG_2_"  style="overflow:visible;"/>
			</clipPath>
			<path class="st11" d="M408.1,24.5c-33,26.5-39.7,84.6-59.3,104.3s-75.7,65.2-75.7,65.2S246.4,45.9,297.4,35.6
				S408.1,24.5,408.1,24.5z"/>
			<path class="st12" d="M457.3,27.8c10.4,8.3,3.4,34.9-5.4,63.3c-10.8,34.9-26.7,63.9-21.4,82c7.7,26.5,2.2,107.4,2.2,107.4
				L518.9,100L474,23.9L457.3,27.8z"/>
			<path class="st13" d="M351.4,41.9c0,0-25.4,31-34.6,50.7s-14.1,45.8-6.7,47c9.2,1.5,10,49.2,10,49.2l-73.3-9.2l43.6-152.5
				L351.4,41.9z"/>
		</g>
		<g id="FLAG_1_">
			<path class="st14" d="M479.4,108.9l0.3-1.8l0.3-2c0.2-1.3,0.4-2.6,0.6-3.9c0.3-2.6,0.6-5.3,0.8-7.9c0.4-5.3,0.5-10.6,0.3-15.9
				c-0.2-5.3-0.8-10.5-1.8-15.6c-1.1-5.1-2.6-10.1-5-14.6c-2.3-4.5-5.4-8.6-9.3-11.6c-1.9-1.5-4.1-2.8-6.3-3.8
				c-1.1-0.5-2.3-0.9-3.5-1.3c-1.3-0.4-2.5-0.8-3.8-1.2c-10.2-2.9-20.7-4.5-31.1-3.9c-5.2,0.3-10.4,1.2-15.4,2.7
				c-5,1.4-9.9,3.4-14.7,5.6C381.3,38.2,372,44,362,48.7c-5,2.4-10.2,4.4-15.6,5.9c-5.4,1.5-11,2.4-16.5,2.6c-5.5,0.3-11,0.4-16.5,0
				c-2.8-0.2-5.5-0.5-8.3-1c-1.4-0.3-2.7-0.5-4.1-0.9c-0.7-0.2-1.4-0.4-2-0.6c-0.7-0.2-1.3-0.4-2.1-0.8l0,0l2.1-0.7
				c-2,4.2-3.8,8.8-5.3,13.3c-1.6,4.5-3,9.1-4.2,13.7c-2.5,9.3-4.3,18.7-5.4,28.1c-1.1,9.5-1.6,19-1.3,28.5
				c0.3,9.5,1.3,18.9,3.1,28.2l0,0l-9.2-1.8c0.3-0.4,0.5-0.7,0.7-1l0.7-0.9c0.4-0.6,0.9-1.2,1.3-1.7c0.9-1.1,1.8-2.2,2.8-3.3
				c1.9-2.1,3.9-4.2,6-6.1c4.2-3.9,8.7-7.3,13.4-10.4c9.5-6.1,20.2-10.4,31.2-12.6c11-2.2,22.3-2.4,33.3-1
				c5.5,0.7,10.9,1.8,16.2,3.2c5.3,1.4,10.7,3.3,15.6,5.8c10,5,18.7,12.5,25.1,21.5c6.5,9,10.8,19.2,13.7,29.7
				c2.9,10.5,4.3,21.3,4.8,32.1c0.4,10.8,0,21.6-1.5,32.3l0,0h0c3-11.9,6.2-23.8,9.4-35.6c3.2-11.8,6.5-23.7,9.8-35.5
				c3.3-11.8,6.7-23.6,10-35.4L479.4,108.9z M484.9,110.3l-10.8,35.3c-3.7,11.7-7.3,23.5-11.1,35.2c-3.7,11.7-7.5,23.4-11.3,35.1
				c-3.9,11.7-7.7,23.3-11.8,34.9l0,0l0,0c1.1-10.7,1.1-21.5,0.3-32.2c-0.9-10.7-2.7-21.3-5.9-31.5c-3.2-10.2-7.8-19.9-14.3-28.2
				c-6.4-8.3-14.8-15-24.3-19.2c-4.7-2.2-9.7-3.7-14.8-4.9c-5.1-1.2-10.3-2-15.6-2.5c-10.4-1-20.9-0.4-31,2.1
				c-10,2.4-19.6,6.7-28,12.5c-4.2,2.9-8.2,6.2-11.8,9.8c-1.8,1.8-3.5,3.7-5.1,5.6c-0.8,1-1.6,2-2.3,3c-0.4,0.5-0.7,1-1.1,1.5
				l-0.5,0.7l-0.4,0.7l-7,11.2l-2.1-13l0,0c-1.3-9.9-1.8-19.8-1.5-29.8c0.3-9.9,1.3-19.8,3.1-29.5c1.7-9.7,4.2-19.3,7.2-28.6
				c1.5-4.7,3.2-9.3,5.1-13.8c1.9-4.5,3.9-9,6.3-13.4l0.8-1.4l1.4,0.7l0,0c0.4,0.2,1.1,0.4,1.7,0.6c0.6,0.2,1.2,0.3,1.9,0.5
				c1.3,0.3,2.6,0.5,3.9,0.7c2.6,0.4,5.3,0.5,7.9,0.7c5.3,0.2,10.7,0,16-0.4c5.3-0.3,10.4-1.3,15.5-2.8c5-1.5,9.9-3.6,14.7-5.9
				c9.6-4.7,18.7-10.5,28.7-15.4c5-2.4,10.2-4.5,15.5-6.1c5.4-1.6,10.9-2.6,16.6-3c11.2-0.8,22.5,0.9,33.1,4c1.3,0.4,2.7,0.8,4,1.2
				c1.3,0.4,2.8,0.9,4.1,1.5c2.7,1.2,5.3,2.7,7.6,4.5c4.7,3.6,8.3,8.4,10.9,13.5c2.6,5.1,4.3,10.6,5.4,16.1
				c1.1,5.5,1.7,11.1,1.9,16.6c0.2,5.5,0,11.1-0.4,16.6c-0.2,2.7-0.5,5.5-0.9,8.2c-0.2,1.4-0.4,2.7-0.6,4.1l-0.3,2l-0.2,1
				L484.9,110.3z"/>
		</g>
		<path id="FLAGPOLE_1_" d="M374.4,430L485.1,88.4c0.6-1.7,2.4-2.7,4.1-2.1c1.7,0.5,2.6,2.3,2.2,4l-95,346.3
			c-1.7,6.1-8,9.7-14.1,8.1c-6.1-1.7-9.7-8-8.1-14.1C374.3,430.3,374.3,430.1,374.4,430z"/>
		<g id="LEG">
			<g>
				<path class="st15" d="M242.5,419.8c-7.8,0-12.6-0.9-14.4-2.8c-1.1-1.1-1.1-2.8-1-5.5c0-0.7,0.1-1.4,0.1-2.1
					c0-5.1,7.5-10.1,15.2-10.1h2.7l-0.2-2.7c0-0.3-1.9-30.2,22-44.2c1.7,0,8.9,0.4,12.3,5.1c2.4,3.4,2.5,8.6,0.3,15.3
					c-8.6,4.3-9.9,24-9.9,35.8C269.4,417.8,264.6,419.8,242.5,419.8z"/>
				<path class="st16" d="M267.4,354.9c2,0.1,7.2,0.7,9.6,4c2.2,3.1,1.5,8.1,0.2,12.2c-8.4,5.4-10.3,23-10.3,37.5
					c0,6.5-1.9,8.6-24.4,8.6c-10.2,0-12.3-1.7-12.6-2c-0.4-0.4-0.4-2.2-0.3-3.7c0-0.7,0.1-1.4,0.1-2.2c0-3.3,6-7.6,12.7-7.6l5.4,0
					l-0.4-5.4c0-0.1-0.5-7.5,2-16.5C252.4,368.8,258.5,360.4,267.4,354.9 M266.7,349.9c-0.4,0-0.5,0-0.5,0
					c-26.2,14.8-23.8,46.9-23.8,46.9c-9.1,0-17.7,5.9-17.7,12.6s-2.6,12.9,17.9,12.9c20.4,0,29.4-1.2,29.4-13.6s1.7-31.6,9.4-33.9
					C289.8,351,270.2,349.9,266.7,349.9L266.7,349.9z"/>
			</g>
			<g>
				<path class="st17" d="M242.5,419.8c-7.8,0-12.6-0.9-14.4-2.8c-1.1-1.1-1.1-2.8-1-5.5c0-0.7,0.1-1.4,0.1-2.1
					c0-5.1,7.5-10.1,15.2-10.1h3l-0.6-3c-0.6-3.2-1.9-12.1-0.3-16.1c0.5-0.8,3.7-5.9,10.1-5.9c2.3,0,4.8,0.7,7.4,1.9
					c10.2,5,9.1,15.5,8,25.7c-0.3,2.4-0.5,4.6-0.6,6.7C269.1,417.9,264.6,419.8,242.5,419.8z"/>
				<path class="st16" d="M254.6,376.8L254.6,376.8c1.9,0,4,0.6,6.3,1.7c8,3.9,7.8,11.7,6.6,23.2c-0.3,2.4-0.5,4.7-0.6,6.8
					c-0.2,5.1-1.9,6.1-4,7c-3.9,1.5-10.7,1.8-20.4,1.8c-10.2,0-12.3-1.7-12.6-2c-0.4-0.4-0.4-2.2-0.3-3.7c0-0.7,0.1-1.4,0.1-2.2
					c0-3.3,6-7.6,12.7-7.6l6.1,0l-1.2-6c-0.8-4.2-1.6-11.6-0.5-14.5C247.3,380.3,249.9,376.8,254.6,376.8 M254.6,371.8
					c-8.5,0-12.4,7.3-12.4,7.3c-2.3,5.5,0.1,17.7,0.1,17.7c-9.1,0-17.7,5.9-17.7,12.6s-2.6,12.9,17.9,12.9s29-1.2,29.4-13.6
					c0.4-10.7,5.6-27.7-8.8-34.7C259.9,372.4,257,371.8,254.6,371.8L254.6,371.8z"/>
			</g>
		</g>
		<g id="GUY_1_" class="st18">
			<g>
				<g>
					<polygon points="14.9,474.2 78.8,462.2 86.7,473.7 81.2,479.5 37.6,489.9 36.6,485.3 15.3,489.5 					"/>
					<path class="st19" d="M11.4,471.4c6.5-0.3,12.4-1,18.1-1.8c5.7-0.8,11.1-1.7,16.5-2.9c5.3-1.2,10.6-2.6,15.8-4.2
						c5.3-1.7,10.5-3.6,15.9-6.3l4.5-2.2l1.7,4.8l4.8,13.6l0.7,2.1l-1,1l-5.5,5.8l-0.5,0.5l-0.7,0.2l-43.6,10.5l-2.5,0.6l-0.5-2.5
						l-1-4.7l2.9,1.9L15.8,492l-2.7,0.5l-0.2-2.9l-0.7-8.8L11.4,471.4z M18.4,477l-0.1,2.8l-0.1,3c-0.1,2.1-0.3,4.3-0.4,6.6l-3-2.4
						l21.4-4.2l2.4-0.5l0.5,2.4l1,4.7l-3-1.9L80.6,477l-1.2,0.7l5.5-5.8l-0.3,3.1l-10.8-9.5l6.2,2.6c-5.3-0.6-10.7-0.6-16.1-0.3
						c-5.4,0.3-10.8,0.9-16.1,1.7c-5.3,0.8-10.5,1.9-15.5,3.1C27.3,474,22.5,475.3,18.4,477z"/>
				</g>
				<g>
					<path d="M47,508.9c8-8.9-0.3-21.2-0.3-21.2l10.9-3.7c0,0,6.9,16.8,0.6,24.8L47,508.9z"/>
					<path class="st19" d="M45.7,509.5c0-0.4,0.1-1,0.4-1.6c0.1-0.3,0.3-0.5,0.4-0.7l0.2-0.3c0.3-0.3,0.5-0.7,0.7-1.1
						c0.4-0.7,0.8-1.5,1-2.3c0.5-1.6,0.7-3.3,0.5-5.1c-0.1-1.7-0.5-3.5-1.1-5.1c-0.6-1.7-1.4-3.4-2.3-4.8l-1.1-1.7l1.8-0.6l10.9-3.7
						l1.3-0.4l0.6,1.3c0.9,2.1,1.7,4.1,2.4,6.2c0.7,2.1,1.2,4.3,1.5,6.6c0.3,2.3,0.5,4.6,0.2,7c-0.3,2.4-1,5-2.6,7.3l0,0l-1.9,1.2
						l-0.3-0.1c-1.2-0.5-2.2-0.8-3.3-1c-1.1-0.2-2.1-0.4-3.1-0.6c-1-0.2-2-0.3-3-0.4C47.8,509.6,46.8,509.5,45.7,509.5z M48.4,508.3
						c0.7,0,1.6-0.1,2.4-0.2c0.9-0.1,1.7-0.2,2.6-0.4c0.8-0.1,1.7-0.4,2.5-0.6c0.8-0.3,1.6-0.6,2.3-1.1l-2.2,1.1l0,0
						c1-1.1,1.8-2.7,2.1-4.5c0.4-1.8,0.5-3.8,0.4-5.8c-0.1-2-0.4-4.1-0.8-6.1c-0.4-2-0.9-4.1-1.6-6l1.9,0.8l-10.9,3.7l0.8-2.3
						c1.1,1.8,2,3.5,2.7,5.4c0.7,1.9,1.1,3.9,1.3,5.9c0.1,2,0,4.2-0.7,6.2c-0.3,1-0.8,2-1.3,2.9c-0.3,0.5-0.5,0.9-0.9,1.3l-0.2,0.3
						c0,0,0-0.1,0-0.2C48.9,508.6,48.7,508.3,48.4,508.3z"/>
				</g>
			</g>
			<g>
				<path class="st15" d="M89.5,521.1c-5,0-16.8-1.5-19.1-15.2c-4.8-29-7.6-47.4-6-58c1.4-9,5.7-12.6,17.9-15.1
					c2.2-0.4,4.1-0.7,5.9-0.7c14.6,0,19.1,15.1,26.7,67c0.9,5.8-1.7,10.1-3.9,12.8C106.2,517.5,97.8,521.1,89.5,521.1z"/>
				<path class="st16" d="M88.3,429.6v5c5.3,0,9.7,2.1,13.7,12.6c3.9,10.3,6.8,26.9,10.6,52.2c0.6,3.9-0.6,7.5-3.4,10.8
					c-4.3,5-12.2,8.3-19.6,8.3c-5.4,0-14.7-1.7-16.6-13.1c-4.7-28.9-7.5-47.2-6-57.2c1.2-7.8,4.8-10.8,15.9-13
					c2-0.4,3.8-0.6,5.4-0.6L88.3,429.6 M88.3,429.6c-2,0-4.1,0.2-6.4,0.7c-24.6,5-23.8,15.5-13.9,76c2,12.2,11.4,17.3,21.5,17.3
					c14.4,0,30.1-10.2,28-24.8C110.1,448.8,105.7,429.6,88.3,429.6L88.3,429.6z"/>
			</g>
			<g>
				<defs>
					<path id="SVGID_9_" d="M68,506.3c-9.9-60.5-10.7-71,13.9-76c22.8-4.6,27.4,12.8,35.6,68.4C121.1,523.6,72.8,535.8,68,506.3z"/>
				</defs>
				<clipPath id="SVGID_10_">
					<use xlink:href="#SVGID_9_"  style="overflow:visible;"/>
				</clipPath>
				<g class="st20">
					
						<radialGradient id="SVGID_11_" cx="90.1659" cy="423.68" r="22.1739" gradientTransform="matrix(0.9342 -0.3567 0.375 0.982 -160.0197 69.8272)" gradientUnits="userSpaceOnUse">
						<stop  offset="0.7925" style="stop-color:#3E5786"/>
						<stop  offset="1" style="stop-color:#323A6E"/>
					</radialGradient>
					<path class="st21" d="M81.9,430.4c-18.5,3.8-22.6,10.6-19.4,39.6c5.2,10.5,16.9,10.8,18.5,10.3c2.5-0.7,7.5-1.3,10.5-12.7
						c2.8-10.7,9.8-16.2,17.5-14.6C103.7,433.5,96.5,427.4,81.9,430.4z"/>
					<path class="st16" d="M82.6,433.7c-2,0.3-4,0.6-5.9,1.1c-1.9,0.5-3.7,1.1-5.4,1.9c-1.6,0.8-3.1,1.9-4.2,3.4
						c-1.1,1.4-1.9,3.1-2.4,5c-1,3.8-1.2,7.9-1.1,12.1c0.1,4.2,0.6,8.3,1.3,12.5l-0.2-0.8l0,0c1.2,2.1,2.7,3.9,4.6,5.3
						c1.8,1.4,4,2.5,6.4,3.1c1.2,0.3,2.4,0.5,3.5,0.6c0.3,0,0.6,0,0.8,0c0.2,0,0.6,0,0.5,0l0.9-0.2c0.3-0.1,0.6-0.1,0.8-0.2
						c1-0.3,1.9-0.8,2.7-1.5c0.8-0.7,1.5-1.6,2.1-2.7c0.6-1.1,1.1-2.2,1.5-3.4c0.2-0.6,0.4-1.2,0.6-1.8c0.2-0.6,0.3-1.2,0.5-2
						c0.7-2.8,1.8-5.6,3.4-8.2c1.6-2.6,3.7-5.1,6.6-7c2.9-1.9,6.6-2.8,10.4-2.7l0,0l-5.6,5.9c-0.9-3.1-1.8-6.1-3-9
						c-1.1-2.8-2.5-5.4-4.1-7.5c-1.7-2-3.6-3.3-6.1-4C88.7,433.2,85.7,433.2,82.6,433.7z M81.3,427c3.5-0.9,7.3-1.5,11.4-0.9
						c2,0.3,4.1,0.9,6.1,1.9c1.9,1,3.6,2.3,5.1,3.8c2.9,3,4.8,6.4,6.3,9.7c1.5,3.4,2.6,6.7,3.5,10.1l2,7.3l-7.6-1.4l0,0
						c-1.6-1-3.5-1.3-5.5-0.7c-2,0.6-3.9,2-5.3,3.9c-1.5,1.9-2.5,4.2-3.3,6.6l-0.6,2c-0.2,0.7-0.4,1.4-0.7,2.1
						c-0.5,1.4-1.1,2.7-1.8,4c-0.7,1.3-1.7,2.6-2.8,3.8c-1.2,1.1-2.7,2.1-4.2,2.6c-0.4,0.1-0.8,0.3-1.1,0.4l-1,0.3
						c-0.7,0.2-1,0.2-1.5,0.2c-0.4,0-0.8,0-1.2,0c-1.5-0.1-3-0.3-4.5-0.6c-2.9-0.7-5.8-2-8.2-3.9c-2.5-1.9-4.4-4.4-5.6-7.2l0,0
						l-0.2-0.4l0-0.3c-0.3-4.3-0.6-8.6-0.7-12.9c-0.1-4.3,0-8.8,1-13.2c0.5-2.2,1.4-4.5,2.8-6.6c1.4-2,3.1-3.9,5.2-5.2
						C72.6,429.5,77,428.2,81.3,427z"/>
				</g>
				<path class="st22" d="M78.8,436.9c0,0,10.8-5.6,18,2.8C96.9,439.7,87.6,435.3,78.8,436.9z"/>
			</g>
			<g>
				<g>
					<path class="st0" d="M70.1,448.6c8.2,0.6,10.9,12,10.3,18.5c-0.3,3.1-2.5,5.1-2.5,5.1l-0.2,4.9l-3.9,1.6l-4.1-3.8l-0.5-3.2
						c0,0-2.7-1.4-3.7-5.8C64.5,461.4,62.1,448,70.1,448.6z"/>
					<path class="st16" d="M70.3,446.2c1.5,0.1,3.1,0.6,4.5,1.3c1.4,0.8,2.5,1.8,3.5,2.9c1.9,2.3,3,4.8,3.7,7.4
						c0.7,2.6,1.1,5.2,1,7.9c0,0.3,0,0.7,0,1c0,0.3,0,0.7-0.1,1.1c-0.1,0.8-0.3,1.6-0.6,2.3c-0.3,0.7-0.7,1.4-1.1,2.1
						c-0.2,0.3-0.4,0.6-0.7,0.9c-0.3,0.3-0.5,0.6-0.9,0.9l0.8-1.7l-0.2,4.9l0,0l-1,2.2l-0.5,0l-4.5,0l0,0l-0.2,0.2l-0.6-0.3
						l-5.3-2.5l-0.6-0.3l-0.2-1.2l-0.5-3.2l1.3,1.8c-0.2-0.1-0.3-0.2-0.4-0.2l-0.3-0.2c-0.2-0.1-0.3-0.3-0.5-0.4
						c-0.3-0.3-0.6-0.5-0.8-0.8c-0.5-0.6-1-1.2-1.3-1.8c-0.8-1.2-1.3-2.6-1.6-3.9c-0.6-2.4-1-4.8-1.2-7.2c-0.1-1.2-0.1-2.5-0.1-3.8
						c0.1-1.3,0.2-2.6,0.7-4.1c0.4-1.4,1.2-3,2.8-4.1C66.9,446.3,68.8,446,70.3,446.2z M69.9,451.1c-0.8,0-1.3,0.1-1.6,0.3
						c-0.4,0.2-0.7,0.8-1,1.6c-0.5,1.6-0.6,3.8-0.4,5.9c0.2,2.1,0.5,4.3,1,6.5c0.2,0.9,0.6,1.7,1,2.5c0.2,0.4,0.5,0.7,0.7,1
						c0.1,0.2,0.3,0.3,0.4,0.4c0.1,0.1,0.1,0.1,0.2,0.2l0.1,0.1c0,0,0.1,0,0,0l1.3,1.8l0.5,3.2l-0.8-1.4l2.9,5.1l-0.8-0.1l0,0
						l3.2-3.2l-1.5,2.2l0,0l0.2-4.9l0-1l0.8-0.8c0,0,0.2-0.2,0.4-0.4c0.1-0.2,0.3-0.4,0.4-0.5c0.2-0.4,0.5-0.8,0.6-1.2
						c0.2-0.4,0.3-0.8,0.3-1.2c0-0.2,0.1-0.4,0.1-0.7c0-0.3,0-0.5,0-0.8c0-2.1-0.2-4.4-0.8-6.5c-0.6-2.1-1.5-4.1-2.7-5.5
						c-0.6-0.7-1.3-1.3-2.1-1.8C71.6,451.5,70.8,451.2,69.9,451.1z"/>
				</g>
				
					<ellipse transform="matrix(0.9671 -0.2544 0.2544 0.9671 -115.1955 34.5023)" class="st23" cx="75.8" cy="462.7" rx="1.6" ry="3"/>
				
					<ellipse transform="matrix(0.9671 -0.2544 0.2544 0.9671 -115.1619 32.523)" class="st23" cx="68.2" cy="461.6" rx="1.6" ry="3"/>
			</g>
			<path class="st24" d="M38.6,495.3c-0.5-4.2,3-6.6,6-5s4.9,7.4,0.7,9.5C41,502.1,38.8,497.5,38.6,495.3z"/>
			<g>
				<path class="st25" d="M89.9,461.6c-4.6,6-3.4,13.1,2.7,17.7c6.1,4.6,13.2,4.5,17.7-1.5c4.5-6,3.2-14.5-2.9-19.1
					C101.5,454.1,94.5,455.6,89.9,461.6z"/>
				<path class="st16" d="M92.7,463.7c-1.8,2-2.8,4.4-2.5,7c0.2,2.5,1.7,5.1,4,7c2.3,2,5.2,3.3,8.1,3.2c1.4-0.1,2.8-0.5,4.1-1.3
					c1.2-0.8,2.3-1.9,3.2-3.1c0.8-1.3,1.4-2.7,1.7-4.1c0.3-1.5,0.3-3,0-4.5c-0.3-1.5-0.9-2.8-1.7-4.1c-0.8-1.2-1.9-2.2-3.1-3
					c-2.4-1.7-5.2-2.3-7.6-1.7C96.4,459.7,94.3,461.5,92.7,463.7z M87.2,459.4c1.2-1.6,2.8-3,4.6-4.1c1.8-1.1,3.9-1.9,6.1-2.1
					c2.2-0.2,4.4,0.1,6.3,0.8c2,0.7,3.7,1.8,5.1,3.1c3,2.6,4.9,6.3,5.4,10.1c0.3,1.9,0.2,3.8-0.3,5.7c-0.4,1.9-1.2,3.6-2.3,5.2
					c-1.1,1.5-2.4,3-4,4c-1.6,1.1-3.5,1.8-5.5,2c-4,0.4-7.8-1-11-3c-1.6-1-3.1-2.3-4.4-3.9c-1.3-1.6-2.2-3.5-2.7-5.6
					c-0.5-2.1-0.5-4.4,0.1-6.5C85,463.1,86,461.1,87.2,459.4z"/>
			</g>
			<g>
				<path class="st15" d="M70.1,491.8c-5.6,0-9.9-1.1-11.2-2.1c-2.2-1.8-3-4.8-2.4-6.4c0.1-0.3,0.5-1.4,2.8-1.4
					c1.1,0,2.4,0.2,3.8,0.7c1.8,0.6,3.6,0.8,5.5,0.8c9.7,0,17.8-7.5,20-9.8c0.1,0,0.3,0,0.5,0c3.1,0,5.5,2.9,6.8,8.1
					C90.5,489.1,79.2,491.8,70.1,491.8C70.1,491.8,70.1,491.8,70.1,491.8z"/>
				<path class="st16" d="M89.6,476.1c1.4,0.3,2.7,2.1,3.6,5c-5.2,6-15.4,8.1-23.1,8.1c-5.6,0-8.9-1.1-9.6-1.6
					c-1.2-1-1.7-2.6-1.7-3.3c0.1,0,0.3,0,0.5,0c0.6,0,1.6,0.1,3.1,0.6c2,0.6,4.1,1,6.2,1C78.3,485.8,86.4,479.2,89.6,476.1
					 M89.2,471.1c-1.1,0-1.8,0.2-1.8,0.2s-8.5,9.6-18.7,9.6c-1.5,0-3.1-0.2-4.7-0.7c-1.8-0.6-3.3-0.8-4.6-0.8
					c-7.4,0-6.5,8.4-1.9,12.2c2,1.6,6.9,2.7,12.8,2.7c10,0,22.8-3.1,28.5-12C96.7,472.5,91.8,471.1,89.2,471.1L89.2,471.1z"/>
			</g>
			<g>
				<path class="st25" d="M75.8,493.9c-2.9,0-5.7-0.5-7.9-1.3c1.8-2.4,2.6-4.6,2.5-6.8c-0.1-1.9-0.8-3.8-2.2-5.6
					c2.8-1.1,6.5-2.4,8.3-2.9c0.6-0.1,1.2-0.2,1.7-0.2c2.8,0,4.4,2.3,5.3,4.2c1.8,4,1.4,9.2-0.1,10.8
					C82.5,492.9,79.9,493.9,75.8,493.9z"/>
				<path class="st16" d="M78.2,479.5c0.4,0,1.7,0,2.8,2.4c1.7,3.4,1.2,7.6,0.5,8.4c-0.5,0.4-2.4,1.1-5.7,1.1
					c-1.4,0-2.8-0.1-4.1-0.4c0.8-1.6,1.2-3.4,1.2-5.4c-0.1-1.4-0.4-2.9-1-4.2c2.1-0.8,4.1-1.5,5.2-1.8
					C77.5,479.5,77.9,479.5,78.2,479.5 M78.2,474.5c-0.7,0-1.5,0.1-2.3,0.3c-3.3,0.8-12.1,4.3-12.1,4.3c5.5,4.8,5.5,8.7,0.1,14.2
					c2.9,2,7.6,3.1,11.9,3.1c4,0,7.7-0.9,9.3-2.6C89.2,489.4,87.2,474.5,78.2,474.5L78.2,474.5z"/>
			</g>
		</g>
		<g id="GUY" class="st26">
			<g>
				<path class="st15" d="M529.2,539.2c-1.6,0-3.7-0.2-6.2-0.7c-15.4-2.7-18.3-4.6-17.2-10.8c2.4-14.8,1.6-23.3-2.6-26.6
					c-0.7-4.8-0.1-8.3,1.8-10.5c1.9-2.3,5-2.8,7.2-2.8c0.5,0,0.9,0,1.2,0c14.6,12.9,10,33.8,9.9,34l-0.6,2.6l2.6,0.5
					c5.1,0.9,9.5,5.1,9,8.5c-0.1,0.5-0.1,1-0.2,1.6C533.6,538.2,533.5,539.2,529.2,539.2C529.2,539.2,529.2,539.2,529.2,539.2z"/>
				<path class="st16" d="M512.1,490.3c0.1,0,0.1,0,0.2,0c12.7,11.9,8.7,30.2,8.5,31l-1.2,5.1l5.2,0.9c4.3,0.8,7.2,4.3,7,5.7
					c-0.1,0.6-0.2,1.1-0.2,1.7c-0.1,0.6-0.2,1.4-0.3,1.8c-0.3,0.1-0.9,0.2-2,0.2c-1.5,0-3.4-0.2-5.8-0.6c-5.6-1-11.2-2.1-13.9-3.7
					c-1-0.6-1.8-1.1-1.3-4.2c2.5-15.1,1.6-24-2.7-28.3c-0.4-3.5,0.1-6.2,1.3-7.6C508.2,490.5,510.7,490.3,512.1,490.3 M512.1,485.3
					c-4.5,0-13.9,1.8-11.2,17.2c5.2,2.7,3.9,15.7,2.4,24.8c-1.5,9.1,4.8,11.1,19.3,13.7c2.7,0.5,4.9,0.7,6.6,0.7
					c7.4,0,6.8-4,7.5-7.9c0.8-4.8-4.6-10.2-11-11.4c0,0,5.4-22.9-11.3-36.9C514.4,485.4,513.5,485.3,512.1,485.3L512.1,485.3z"/>
			</g>
			<g>
				<path class="st17" d="M529.2,539.2c-1.6,0-3.7-0.2-6.2-0.7c-15.3-2.7-18.1-4.5-17.2-10.9c0.2-1.5,0.3-3.2,0.4-5
					c0.5-8.7,1.4-15.1,8.2-17.1c1.3-0.4,2.5-0.6,3.6-0.6c5.2,0,7.2,4.5,7.5,5.3c0.5,2.6-1,8.3-2.1,11.3l-1,2.8l2.9,0.5
					c5.1,0.9,9.5,5.1,9,8.5c-0.1,0.5-0.1,1-0.2,1.6C533.6,538.2,533.5,539.2,529.2,539.2C529.2,539.2,529.2,539.2,529.2,539.2z"/>
				<path class="st16" d="M517.9,507.5c3.2,0,4.6,2.5,5,3.4c0.2,1.9-0.8,6.5-2,9.7l-2,5.6l5.9,1.1c4.3,0.8,7.2,4.3,7,5.7
					c-0.1,0.6-0.2,1.1-0.2,1.7c-0.1,0.6-0.2,1.4-0.3,1.8c-0.3,0.1-0.9,0.2-2,0.2c-1.5,0-3.4-0.2-5.8-0.6
					c-15.9-2.8-15.7-4.4-15.2-8.1c0.2-1.6,0.3-3.3,0.4-5.2c0.5-8.2,1.1-13.3,6.4-14.8C516.1,507.6,517.1,507.5,517.9,507.5
					 M517.9,502.5c-1.3,0-2.7,0.2-4.3,0.7c-11,3.3-9.3,16.3-10.3,24.1c-1.2,9.2,4.8,11.1,19.3,13.7c2.7,0.5,4.9,0.7,6.6,0.7
					c7.4,0,6.8-4,7.5-7.9c0.8-4.8-4.6-10.2-11-11.4c0,0,3.1-8.6,2.1-12.8C527.8,509.6,525.5,502.5,517.9,502.5L517.9,502.5z"/>
			</g>
			<g>
				<path class="st15" d="M519.2,472.9c-3.4-1.7-5.4-4-6.2-7c-1.4-5.2,1.5-11.7,3.5-15c0.8,0.1,1.8,0.2,2.9,0.2c4,0,7.3-1.3,9.5-3.7
					c2.5-2.7,3.5-6.7,3.1-11.8c-0.4-5,0.7-7,1.4-7.8c0.6-0.6,1.3-0.9,2.3-0.9c2.7,0,6.3,2.5,7.8,5.6c1.9,3.8,2.4,16.9-3.6,27.4
					C535.3,467.8,528.4,472.2,519.2,472.9z"/>
				<path class="st16" d="M535.7,429.4c1.6,0,4.3,1.7,5.6,4.2c1.5,2.9,2.1,15.2-3.6,25.1c-4,6.9-10,10.8-17.9,11.6
					c-2.3-1.3-3.7-3-4.3-5c-1-3.8,0.8-8.6,2.4-11.7c0.5,0,1,0,1.5,0c4.7,0,8.7-1.6,11.4-4.5c3-3.2,4.2-7.9,3.7-13.8
					c-0.3-3.6,0.3-5.4,0.8-5.9C535.3,429.5,535.3,429.4,535.7,429.4 M535.7,424.4c-3.8,0-6.9,3.1-6.2,11.4
					c0.9,11-5.6,12.8-10.1,12.8c-2.3,0-4-0.5-4-0.5s-13.6,19.2,3.4,27.2c28.7-1.6,31.1-36,27-44.1
					C543.7,427.4,539.3,424.4,535.7,424.4L535.7,424.4z"/>
			</g>
			<g>
				<path class="st25" d="M535.9,465.9c-4.4,0-10.4-2.6-13.1-6.9c-1.6-2.6-1.6-5.3-0.1-8.3c1.2-2.4,4.4-7.1,6.6-10.3
					c2,3.2,4.4,5.4,7.9,5.4c0,0,0,0,0,0c1.7,0,3.6-0.5,6.1-1.8c1.7,7.9-0.7,19.2-4.2,21.2C538.3,465.6,537.2,465.9,535.9,465.9
					C535.9,465.9,535.9,465.9,535.9,465.9z"/>
				<path class="st16" d="M529.5,444.7c1.9,2.1,4.4,3.7,7.8,3.7c1.3,0,2.6-0.2,4-0.7c0.2,2.3,0.1,4.9-0.3,7.4
					c-0.8,5.1-2.5,7.7-3.1,8c-0.3,0.2-1,0.3-2,0.3c-3.6,0-8.9-2.3-10.9-5.7c-1.1-1.8-1.1-3.7,0-5.8
					C525.8,450.3,527.6,447.4,529.5,444.7 M529.5,435.7c0,0-7,9.9-9,13.9c-5.6,10.8,6.9,18.8,15.4,18.8c1.7,0,3.2-0.3,4.4-1
					c5.6-3.2,7.9-18.7,4.5-27c-3.3,2-5.6,3-7.5,3C534.2,443.3,532.3,440.8,529.5,435.7L529.5,435.7z"/>
			</g>
			<g>
				<g>
					<polygon points="507,365.1 511.9,449.7 527.7,456 532.8,447.9 532.1,393.7 524.7,391.7 525.1,362.9 512.8,359.1 					"/>
					<path class="st19" d="M511.2,366.6c-0.8,6.4-1,13.2-1,20.1c0.1,6.9,0.4,13.9,0.9,20.9c0.6,7,1.3,14,2.4,21
						c1.1,7,2.4,13.9,4.4,20.7l-3.8-5.3l14.5,9.7l-3,1l5.1-8.1l-0.4,1.4l-0.7-54.2l1.8,2.4l-7.4-2.1l-1.9-0.5l0-1.9l0.4-28.7
						l1.8,2.4l-12.6-3l3.4-0.9C513.9,363.4,512.6,365.1,511.2,366.6z M502.8,363.5c2.5-2.4,5-4.7,7.5-6.8l1.8-1.5l1.6,0.6l12.1,4.7
						l1.8,0.7l0,1.7l-0.4,28.7l-1.8-2.4l7.4,2.1l1.8,0.5l0,1.9l0.7,54.2l0,0.7l-0.4,0.6l-5.1,8.1l-0.9,1.4l-2.2-0.4l-17.2-3
						l-4.6-0.8l0.7-4.5c1.2-7.3,1.7-14.5,2-21.6c0.3-7.1,0.2-14.2,0-21.3c-0.2-7.1-0.7-14.2-1.5-21.4
						C505.4,378.5,504.4,371.2,502.8,363.5z"/>
				</g>
				<g>
					<path d="M557.6,412c-11,8.8-25.2-2.2-25.2-2.2l-5,4.9l0.1,8c0,0,19.8,9.9,29.6,2.9l3.1-5.4L557.6,412z"/>
					<path class="st19" d="M557.1,413.5c0,0.2,0.1,0.4,0.2,0.5c0,0,0.1,0.1,0,0.1l-0.4,0.2l-0.8,0.5l-0.8,0.4
						c-1.1,0.5-2.3,1-3.5,1.3c-2.4,0.6-5,0.6-7.4,0.2c-2.4-0.4-4.7-1.1-6.9-2.1c-2.2-1-4.2-2.1-6.2-3.6l2-0.1l-5,4.9l0.4-1.1l0.1,8
						v0l-0.8-1.3c2.3,1,4.7,1.8,7.1,2.5c2.4,0.7,4.8,1.2,7.3,1.6c2.4,0.3,4.8,0.4,7.1,0.1c2.3-0.3,4.3-1,5.8-2.2l0,0l-0.8,0.9
						l4.3-4.8l0,0l-0.1,1.2c-0.4-1.2-0.7-2.3-0.9-3.4C557.6,416,557.4,414.8,557.1,413.5z M558,410.6c0.6,1.4,1.3,2.9,1.9,4.4
						c0.6,1.5,1.2,3.1,1.7,4.7l0.2,0.6l-0.3,0.6l0,0l-1.9,6.1l-0.1,0.2l-0.8,0.7l0,0c-2.7,1.8-5.8,2.5-8.7,2.6
						c-2.9,0.1-5.6-0.3-8.3-0.8c-2.6-0.6-5.2-1.4-7.7-2.3c-2.5-1-4.9-2-7.3-3.3l-0.8-0.4v-0.9v0l-0.1-8l0-0.6l0.5-0.4l5-4.9l0.9-0.9
						l1.1,0.8c1.7,1.2,3.6,2.3,5.6,3.2c2,0.9,4,1.5,6.1,1.9c2.1,0.3,4.2,0.3,6.2-0.2c1-0.2,2-0.6,2.9-1l0.7-0.4l0.7-0.4l0.3-0.2
						c0.2-0.2,0.5-0.3,0.7-0.4C557,410.9,557.5,410.7,558,410.6z"/>
				</g>
				<polyline class="st27" points="557.6,412 553.8,417.4 557,425.6 				"/>
			</g>
			<g>
				<path class="st15" d="M493.6,503.7c-12.3,0-25.8-7.7-26.3-22c-1.7-42.9-2.1-69.6,6.8-79.3c3.2-3.4,7.7-5.1,14.5-5.4
					c0.9,0,1.9-0.1,2.8-0.1c20.8,0,26.1,8,26.8,81.8c0.1,7.5-2.1,13.6-6.5,18C507.2,501.3,500.8,503.7,493.6,503.7
					C493.6,503.7,493.6,503.7,493.6,503.7z"/>
				<path class="st16" d="M491.3,399.5c11.1,0,15.6,3,18.8,12.3c4.2,12.2,5.2,34.7,5.5,67c0.1,6.8-1.9,12.3-5.8,16.2
					c-3.9,4-9.7,6.2-16.2,6.2c-11.2,0-23.3-6.9-23.9-19.6c-1.7-42.2-2.1-68.5,6.1-77.5c2.7-2.9,6.6-4.3,12.8-4.6
					C489.6,399.5,490.4,399.5,491.3,399.5 M491.3,394.5c-0.9,0-1.9,0-2.8,0.1c-25.1,0.9-26.4,20.5-23.7,87.2
					c0.6,15.6,14.9,24.4,28.8,24.4c13.7,0,27.2-8.5,27-27.4C520,408.2,515.7,394.5,491.3,394.5L491.3,394.5z"/>
			</g>
			<g>
				<defs>
					<path id="SVGID_12_" d="M523,478.8c-5.7-73-7.7-85.2-34.6-84.2c-25.1,0.9-25.6,22.4-20,89.9C470.9,515.3,525.8,515.2,523,478.8
						z"/>
				</defs>
				<clipPath id="SVGID_13_">
					<use xlink:href="#SVGID_12_"  style="overflow:visible;"/>
				</clipPath>
			</g>
			<g>
				<defs>
					<path id="SVGID_14_" d="M520.6,478.8c-0.6-73.3-5.2-85.2-32.1-84.2c-25.1,0.9-21.4,22.6-22.5,89.9
						C465.4,515.5,520.9,516.9,520.6,478.8z"/>
				</defs>
				<clipPath id="SVGID_15_">
					<use xlink:href="#SVGID_14_"  style="overflow:visible;"/>
				</clipPath>
				<g class="st28">
					
						<radialGradient id="SVGID_16_" cx="567.8809" cy="415.4335" r="25.3727" gradientTransform="matrix(-0.9049 -0.1121 -0.1293 1.0432 1064.7871 47.9117)" gradientUnits="userSpaceOnUse">
						<stop  offset="0.7925" style="stop-color:#3E5786"/>
						<stop  offset="1" style="stop-color:#323A6E"/>
					</radialGradient>
					<path class="st29" d="M488.4,394.6c20.3-0.8,24.9,1.8,29.1,36c-2.7,13.6-14.2,18.8-16.1,18.7c-2.8-0.1-14.9-1.6-21.3-13.9
						c-4.2-8.3-10.4-6-14.6-7.1C466.4,404.2,472.3,395.2,488.4,394.6z"/>
					<path class="st16" d="M488.4,392.8c1.1,0,2.3,0,3.4,0c1.2,0,2.3,0,3.5,0c2.3,0,4.7,0.1,7.2,0.6c2.4,0.5,5,1.5,7.1,3.3
						c2.1,1.7,3.5,4,4.6,6.2c1,2.3,1.8,4.5,2.4,6.8c0.6,2.3,1,4.6,1.4,6.9c0.8,4.6,1.4,9.1,1.9,13.6l0,0.4l-0.1,0.4
						c-0.6,3.1-1.5,6.2-3.2,8.9c-1.6,2.7-3.7,5.2-6.2,7.2c-1.2,1-2.6,1.9-4,2.7c-0.7,0.4-1.4,0.7-2.2,1.1c-0.4,0.2-0.8,0.3-1.3,0.4
						c-0.2,0.1-0.5,0.1-0.8,0.2c-0.1,0-0.4,0-0.6,0c-0.2,0-0.2,0-0.4,0c-1.7-0.1-3.2-0.4-4.7-0.8c-1.5-0.4-3-0.9-4.4-1.6
						c-5.8-2.5-10.7-7-13.7-12.6c-0.7-1.2-1.4-2.1-2.3-2.8c-0.9-0.7-1.9-1-2.8-1c-1-0.1-2,0.1-3.4,0.2c-1.3,0.1-2.9,0.3-5.3-0.2
						l-3.4-0.7l-0.1-4c-0.1-4,0.1-8,0.8-12.1c0.4-2,0.9-4.1,1.5-6.1c0.6-2,1.5-4.1,2.6-6.1c1.1-2,2.5-3.8,4.3-5.4
						c1.7-1.6,3.8-2.8,5.9-3.6C480.2,393.1,484.4,392.9,488.4,392.8z M488.5,396.3c-3.7,0.3-7.3,1.3-9.9,3.3c-2.6,2-4.1,4.7-5.1,7.7
						c-0.5,1.5-0.9,3.1-1.3,4.8c-0.3,1.7-0.5,3.4-0.7,5.2c-0.4,3.6-0.7,7.2-1.1,11l-3.5-4.7c0.5,0.2,1.8,0.5,3.4,0.8
						c1.6,0.3,3.4,0.8,5.2,1.8c1.8,0.9,3.3,2.3,4.4,3.8c1.1,1.4,1.9,3,2.6,4.4c2.3,4.8,6.3,8.8,11.3,10.8c2.4,1,5.2,1.7,7.7,1.8
						c0,0,0.2,0,0.2,0c-0.1,0-0.1,0-0.1,0c0,0,0.1,0,0.2-0.1c0.2-0.1,0.5-0.2,0.8-0.3c0.6-0.2,1.1-0.5,1.7-0.9
						c1.1-0.7,2.2-1.4,3.2-2.3c2-1.7,3.7-3.8,5-6c1.3-2.3,2.4-4.7,3-7.3l0,0.7c-0.6-4.5-1.2-8.9-2.1-13.3c-0.4-2.2-0.9-4.3-1.5-6.5
						c-0.6-2.1-1.2-4.2-2.1-6c-0.9-1.9-1.9-3.6-3.2-4.9c-1.3-1.3-3-2.3-4.9-2.9C497.6,396,493,396,488.5,396.3z"/>
				</g>
			</g>
			<g>
				<g>
					<path class="st0" d="M493.6,401.4c-17.2,0.8-17.8,14.5-14.1,22.5c3.8,8.2,10.2,7.3,10.2,7.3l-0.1,4.9l9,2l7.1-4.7l-0.7-3.9
						c0,0,4.6-0.6,5.8-7.1C511.8,416.9,510.5,400.7,493.6,401.4z"/>
					<path class="st16" d="M493.7,403.9c-3.5,0.1-6.9,1-9.4,2.8c-2.5,1.8-3.9,4.8-4.1,8c-0.2,3.3,0.7,6.8,2.3,9.6
						c0.8,1.4,1.9,2.6,3.1,3.3c0.6,0.4,1.3,0.7,1.9,0.9c0.3,0.1,0.7,0.2,1,0.2c0.2,0,0.3,0,0.5,0l0.2,0c0,0,0.2,0,0.1,0l2.8,2.5
						l-0.1,4.8l0,0l-2-2.5l8.6,3.7l0,0l-0.6,0.1l6.1-6.2l-1.1,2.5l-0.7-3.9l2.1-2.9c-0.1,0,0,0,0,0c0,0,0.1,0,0.2,0
						c0.1,0,0.2-0.1,0.4-0.1c0.2-0.1,0.5-0.2,0.7-0.4c0.5-0.3,0.9-0.7,1.2-1.2c0.7-1,1.1-2.3,1.3-3.7c0.4-2.9,0-6.2-1-9
						c-0.5-1.4-1.2-2.7-2-3.9c-0.9-1.1-1.9-2.1-3.1-2.8C499.9,404.3,496.8,403.8,493.7,403.9z M493.5,398.9
						c3.7-0.2,7.8,0.4,11.4,2.6c1.7,1.1,3.3,2.5,4.5,4.1c1.2,1.6,2.1,3.4,2.8,5.2c0.7,1.8,1,3.7,1.3,5.6c0.2,1.9,0.2,3.8,0,5.8
						c-0.3,2-0.9,4-2.2,5.9c-0.6,0.9-1.5,1.8-2.4,2.4c-0.5,0.3-1,0.6-1.5,0.9c-0.3,0.1-0.6,0.2-0.9,0.3c-0.1,0-0.3,0.1-0.5,0.1
						c-0.2,0-0.3,0.1-0.6,0.1l2.1-2.9l0.7,3.9l0.4,2l-1.4,0.6l-8,3.2l-0.4,0.2l-0.1-0.1l0,0l-9.3-0.2l-1.6,0l-0.4-2.5l0,0l0.1-4.8
						l2.8,2.5c-5.5,0.4-9.6-3.1-11.8-6.8c-1.1-1.9-1.9-3.9-2.4-6c-0.5-2.1-0.7-4.3-0.6-6.4c0.1-2.2,0.7-4.4,1.7-6.5
						c1-2.1,2.6-3.9,4.4-5.3c1.8-1.3,3.9-2.3,6-2.9C489.4,399.3,491.5,399,493.5,398.9z"/>
				</g>
				<path class="st30" d="M483.9,418c-0.2,2,1.2,3.8,3.2,4.1c2,0.3,3.8-1.1,4-3.1c0.2-2-1.2-3.8-3.2-4.1
					C485.9,414.6,484.1,416,483.9,418z"/>
				<path class="st30" d="M499.7,416.6c-0.2,2,1.2,3.8,3.2,4.1c2,0.3,3.7-1.1,3.9-3.1c0.2-2-1.2-3.8-3.2-4.1
					C501.7,413.2,500,414.6,499.7,416.6z"/>
				<g>
					<line class="st0" x1="494.8" y1="437.2" x2="495.2" y2="429.1"/>
					<polygon class="st16" points="492.7,437.1 495.2,429.1 496.8,437.3 					"/>
				</g>
				<g>
					<line class="st0" x1="501.7" y1="435.7" x2="498.9" y2="428.2"/>
					<polygon class="st16" points="499.8,436.4 498.9,428.2 503.6,435 					"/>
				</g>
			</g>
			<g>
				<path class="st25" d="M475.6,453.1c-6.6,6.6-15.5,6.4-22.2-0.4c-6.7-6.8-7.8-15.5-1.2-22c6.6-6.5,17.3-6.4,23.9,0.3
					C482.8,437.7,482.2,446.5,475.6,453.1z"/>
				<path class="st16" d="M478.1,455.6c-1.8,1.7-3.9,3.1-6.3,4.1c-2.4,1-5,1.4-7.6,1.2c-2.6-0.2-5-1-7.1-2.2
					c-2.1-1.2-3.9-2.8-5.5-4.5c-1.5-1.7-2.8-3.7-3.8-5.8c-1-2.1-1.6-4.5-1.7-6.8c-0.1-2.4,0.5-4.8,1.5-6.9c1-2.1,2.5-4,4.2-5.5
					c1.7-1.6,3.7-2.8,5.9-3.6c2.2-0.8,4.5-1.3,6.8-1.3c4.7,0,9.4,1.7,13,4.9c1.8,1.5,3.4,3.4,4.5,5.6c1.2,2.2,1.9,4.7,1.9,7.3
					c0.1,2.6-0.5,5.2-1.6,7.5C481.2,451.8,479.9,453.9,478.1,455.6z M473.2,450.7c0.6-0.7,1.2-1.3,1.8-2c0.5-0.7,1-1.4,1.4-2.1
					c0.8-1.5,1.4-3.1,1.5-4.7c0.1-1.6-0.1-3.3-0.7-5c-0.6-1.6-1.6-3.2-2.9-4.5c-1.2-1.4-2.8-2.5-4.4-3.3c-1.7-0.8-3.5-1.3-5.4-1.4
					c-1.9-0.1-3.8,0.2-5.6,0.8c-1.8,0.6-3.5,1.6-4.9,2.9c-1.4,1.3-2.6,2.9-3.4,4.5c-0.8,1.7-1.1,3.6-0.9,5.4
					c0.3,3.7,2.5,7.1,5.3,9.7c2.8,2.6,6.3,4.2,9.6,4.1C467.8,455,470.8,453.3,473.2,450.7z"/>
			</g>
			<path class="st31" d="M453.2,436.6c0,0,2.9-8.3,15.8-6C469,430.6,458.6,431,453.2,436.6z"/>
			<path class="st31" d="M474.8,407.6c0,0,1.1-10.1,16.1-10.7C490.8,396.9,479.3,399.9,474.8,407.6z"/>
			<g>
				<path class="st15" d="M458.5,492.4c-2.3,0-4.7-1-6.5-2.6c-2.9-2.7-7-12.3-6.8-22.9c0.1-5.7,1.5-13.6,7.6-19.4
					c11.1,1.1,13,7.2,13.2,9.6c-4.7,4.2-10.7,13.8-5.1,25.7c1.7,3.6,2.1,6.5,1.1,8C461.2,492.2,459.5,492.4,458.5,492.4z"/>
				<path class="st16" d="M453.7,450.2c6.8,1,8.9,4.1,9.6,6.2c-5,5.1-10.4,15.3-4.6,27.6c1.7,3.6,1.4,5.3,1.2,5.6
					c-0.1,0.1-0.5,0.4-1.5,0.4c-1.6,0-3.5-0.7-4.8-1.9c-2.2-2-6.2-11-6-21C447.8,462,448.9,455.3,453.7,450.2 M452,445
					c-15.8,13.5-8,40.9-1.7,46.7c2.2,2.1,5.4,3.2,8.2,3.2c5.1,0,9.1-3.9,4.8-13.1c-6.7-14.3,5.4-23.5,5.4-23.5S469.3,446.2,452,445
					L452,445z"/>
			</g>
			<g>
				<path class="st25" d="M445.9,480.1c-3.7-6.4-4.8-17.3-2.3-20.4c1.4-1.7,5-2.8,8.9-2.8c4.3,0,8,1.3,9.9,3.5
					c1.3,1.5,1.8,3.4,1.6,5.7c-0.3,2.5-1.5,7.9-2.4,11.6c-2.3-1.5-4.5-2.2-6.7-2.2C451.9,475.4,449,476.9,445.9,480.1z"/>
				<path class="st16" d="M452.6,459.4c3.5,0,6.6,1,8,2.6c0.5,0.6,1.2,1.6,1,3.7c-0.2,1.7-0.9,5-1.6,8.2c-1.7-0.7-3.3-1-4.9-1
					c-3.3,0-6,1.3-8.3,3.1c-0.7-1.9-1.3-4-1.6-6.2c-0.8-5,0-8,0.5-8.6C446.2,460.5,448.9,459.4,452.6,459.4 M452.6,454.4
					c-4.5,0-8.9,1.4-10.8,3.7c-3.9,4.8-1.7,19.8,4.1,26.1c3.2-4.2,6.1-6.2,9.2-6.2c2.5,0,5.2,1.3,8.2,4c0,0,2.8-11.4,3.3-15.6
					C467.5,457.9,459.8,454.4,452.6,454.4L452.6,454.4z"/>
			</g>
			<path class="st24" d="M527.5,436.9c-1.2-8.9,6.1-13.9,12.5-10.4c6.4,3.5,10.6,15.8,1.9,20.2C532.8,451.3,528.1,441.5,527.5,436.9
				z"/>
		</g>
		<g id="GROUND">
			<g id="GB" inkscape:groupmode="layer" inkscape:label="GROUND">
				<g id="path841" inkscape:connector-curvature="0" sodipodi:nodetypes="ccccccsszsscszcczcsc">
					
						<radialGradient id="SVGID_17_" cx="92.6813" cy="97.5805" r="107.9122" gradientTransform="matrix(10.5435 -3.302830e-02 2.543309e-02 8.1189 -668.9543 -566.4621)" gradientUnits="userSpaceOnUse">
						<stop  offset="0" style="stop-color:#80557C"/>
						<stop  offset="1" style="stop-color:#1A1A37"/>
					</radialGradient>
					<path class="st32" d="M555.5,577.8c8.6,2.1,45,12.3,45,12.3l-1.1,259.3H-8l-3.3-227.1c56.1-29.5,64.8-104.7,69.6-105.9
						c9.6-4.3,34.8-11.4,39.1-13.5c0,0,15.7-10.2,33.5-61.1c10.8-30.9,7.9-31.8,17.3-35.2c9.4-3.4,5-3.3,18.9,8.4
						c14.2,12,31-9.2,42.9-8.6c5.3,0.3,26.1,11.9,41,9.5c6.9-0.2,19-10,33.5-19.4c14.8-9.6,29.3-20.7,47.9-26.1s21.8,24.5,35.1,33.9
						c15.1,10.7,43.4,5.9,49.8,24.6c19,52.9,43.3,50.8,61.3,52.3s0.2,16.2,28.5,49.5c17.3,5,36.2-5.1,36.9,8.5
						C544.3,545,546.5,573.8,555.5,577.8L555.5,577.8z"/>
				</g>
			</g>
			<g id="GL">
				<g>
					<defs>
						<path id="SVGID_18_" d="M555.5,577.8c8.6,2.1,45,12.3,45,12.3l-1.1,259.3H-8l-3.3-227.1c56.1-29.5,64.8-104.7,69.6-105.9
							c9.6-4.3,34.8-11.4,39.1-13.5c0,0,15.7-10.2,33.5-61.1c10.8-30.9,7.9-31.8,17.3-35.2c9.4-3.4,5-3.3,18.9,8.4
							c14.2,12,31-9.2,42.9-8.6c5.3,0.3,26.1,11.9,41,9.5c6.9-0.2,19-10,33.5-19.4c14.8-9.6,29.3-20.7,47.9-26.1
							s21.8,24.5,35.1,33.9c15.1,10.7,43.4,5.9,49.8,24.6c19,52.9,43.3,50.8,61.3,52.3s0.2,16.2,28.5,49.5c17.3,5,36.2-5.1,36.9,8.5
							C544.3,545,546.5,573.8,555.5,577.8L555.5,577.8z"/>
					</defs>
					<clipPath id="SVGID_19_">
						<use xlink:href="#SVGID_18_"  style="overflow:visible;"/>
					</clipPath>
					
						<radialGradient id="path1140_1_" cx="378.075" cy="257.6568" r="450.9174" gradientTransform="matrix(1.4969 1.576072e-02 -8.956095e-03 0.8506 -284.5757 142.1278)" gradientUnits="userSpaceOnUse">
						<stop  offset="0" style="stop-color:#EDBA7B"/>
						<stop  offset="1" style="stop-color:#ED85BA;stop-opacity:0"/>
					</radialGradient>
					
						<path id="path1140" inkscape:connector-curvature="0" sodipodi:nodetypes="cccsccssssscsssccccssccccccscssscccsscsscssscsscccccccscccsssscccc" class="st33" d="
						M368.4,361.4l-146.7,16.1l-53.8-14c-5.4-14.6-46.3,43.3-86.7,43.3c-50.9,0.1-105.9,6.6-105.9,6.6l-18.1,365.7
						c3.1-50.2,34.6-85.4,40.2-88.8c24-14.6,55.3-17,73.3-20.1c30.5-5.3,44.2-1.1,54.7,4.2c10.6,5.3,18.2,16.4,18.2,16.4
						c12.8-8,12.8-30.5,20.5-56.7c3.3-11.4,8.1-55.3,18.7-76.4c3.4-5.1,4.6-14.2,17.7-17c22.6-4.9,47.8,3.4,99-8.5
						c46.5-10.7-56.7-14.6-64.8-15.5c-8.7-1.1-3.8-33.7-3.8-33.7c4.4,0.4,6.6-0.6,28.7-2.8c54.6-5.3,34.6-22.8,70.6-51.2
						c18.2,27.1,43.2,16.5,54.2,33c-27.7,13.2-44.1,20.6-45.5,36.4c-7.4,85-41,69.1-57.6,88.3c-5.5,6.4-11,44.3-13.3,75.8
						c11-22,26.5-29.5,26.5-29.5c20.6,0.4,56.3-0.8,77.3-4.9c10.2-3.8,36.4-32,40.5-32.8c0,0,0.5,4.8,2.5,19.5
						c3.3,23.6,4.7,47.5,4.7,47.5s20.4,1.9,31.1,2.2c15.1,0.4,15.8,15.3,20.1,34.2c0,0,6.8-1.7,6.9-6.4c0.1-4.6,0.2-10.8-0.2-17.1
						s-0.9-12.6-2.2-17.5c-1.2-4.9-3.1-8.3-5.8-8.8c-22.4-2.9-31.2-3.7-31.2-3.7c-5.2-13.1-12.6-49.7-20-75.5
						c-0.8-2.3-9.6-2.9-24.6-3.8c-20-1.2-17.8-0.6-40.3-1.3c-9.2-0.3-1.7-42.7-3.2-56c7.2,3,18.1,5.6,33.4,7.5
						c17.3,2.2,39.3,3.3,59.6,0.7c19.8-2.5-9.7,58,63.8,50.7c0.4,10.8-0.2,25.1,4.9,40.3c3.4,10.2,28.3,25.3,43.8,32.9
						c15.8,7.8,23.7,23.5-7.9,22.3c-31.2-1.2-37.2,1.8-38.5,7.3c0,0,51.9,3.1,55.8,17.1c6.8,24.9,21.7,74.3,27.9,73.4
						c34.6-5.3,37.9-202.9,37.9-202.9L550.1,515c6.8-42.7-151.9-112.8-151.9-112.8L376.8,390L368.4,361.4z M194.4,453.6
						c12.1-0.4,17.1,11,18.4,30.5c0.6,9.7,2.3,25.8-0.8,35.1c-16.3,1-24.8,5.3-31.4,13.7l-0.3,0.1c-9.9,15.3-23.9,67.3-34.3,88.5
						c-5.5,11.2-30.6,20.4-67.5,25.7c-4.3,0.6-36.4-15.6-33.6-22.4c15.5-37,24.3-70.2,27.5-72.1c6.4-3.8,45-21,45-21
						s19.7-46,25.5-79.2c1.7-9.3,3.4-9,6.6-8.9C149.6,443.6,178.9,454,194.4,453.6z"/>
				</g>
			</g>
		</g>
		<g id="GUY_2_">
			<g>
				<path class="st17" d="M296.3,306.5c-8.5,13.9-22.7,17.2-36.6,8.7c-13.9-8.5-19.2-22.7-10.7-36.6c8.5-13.9,26.7-18.2,40.6-9.7
					C303.5,277.5,304.8,292.7,296.3,306.5z"/>
				<path class="st16" d="M299.3,308.4c-2.2,3.3-4.8,6.4-8.1,8.9c-3.2,2.5-7.1,4.3-11.2,5c-4.1,0.7-8.2,0.4-12-0.7
					c-3.8-1.1-7.3-2.9-10.5-5.1c-3.2-2.2-6-4.8-8.4-7.9c-2.4-3.1-4.2-6.6-5.1-10.4c-0.9-3.8-0.9-7.8,0-11.6
					c0.9-3.8,2.6-7.2,4.8-10.4c4.4-6.3,11.2-10.8,18.7-12.6c7.5-1.8,15.7-0.8,22.6,3.1c3.4,1.9,6.6,4.4,9.1,7.5
					c2.5,3.2,4.3,7,5,11.1c0.7,4.1,0.4,8.2-0.5,12.1c-0.5,2-1.1,3.8-1.8,5.7c-0.4,0.9-0.8,1.8-1.2,2.7
					C300.3,306.7,299.8,307.5,299.3,308.4z M293.3,304.7c0.4-0.7,0.8-1.5,1.2-2.2c0.4-0.7,0.8-1.5,1.1-2.2c0.7-1.5,1.3-3,1.8-4.6
					c0.9-3.1,1.3-6.4,0.9-9.5c-0.4-3.1-1.5-6.2-3.4-8.8c-1.8-2.7-4.3-4.9-7.2-6.7c-2.8-1.8-6-3.1-9.4-3.7c-3.3-0.6-6.8-0.6-10.2,0.1
					c-3.4,0.7-6.6,2-9.5,3.8c-2.9,1.9-5.4,4.3-7.4,7.1c-2,2.8-3.5,6-4.3,9.3c-0.8,3.3-0.7,6.8,0.2,10c0.9,3.3,2.6,6.3,4.8,8.9
					c2.2,2.6,4.9,4.8,7.8,6.6c2.9,1.8,6.1,3.2,9.3,3.9c3.2,0.7,6.5,0.7,9.6,0c3.1-0.7,5.9-2.2,8.4-4.3
					C289.7,310.2,291.7,307.6,293.3,304.7z"/>
			</g>
			<g>
				<path class="st15" d="M307.4,378.9c-14.1,0-27.3-5.5-34.5-14.3c-5.7-7-7.5-15.5-5.5-25.3c17.6-85.6,23.2-108,49.9-108
					c3.7,0,8,0.4,13.3,1.3c10.7,1.8,17.5,5.4,21.6,11.5c10.1,15,5.6,45.2-9.2,111.6C339.2,372.8,321.4,378.9,307.4,378.9z"/>
				<path class="st16" d="M317.3,228.7v5c3.6,0,7.8,0.4,12.9,1.3c9.9,1.6,16.3,5,20,10.4c10.4,15.4,3,53.4-9.5,109.6
					c-3.5,15.8-20.1,21.4-33.2,21.4c-13.3,0-25.8-5.1-32.5-13.4c-5.2-6.4-6.9-14.2-5-23.3c8.5-41.6,14.7-70.1,21.8-86.4
					c7.2-16.4,14.8-19.6,25.6-19.6L317.3,228.7 M317.3,228.7c-28.5,0-34.6,23.5-52.3,110c-5.7,27.7,18.9,42.7,42.5,42.7
					c17.4,0,34.2-8.1,38.1-25.3c20.1-90.3,23.2-119.8-14.5-126.1C325.9,229.2,321.3,228.7,317.3,228.7L317.3,228.7z"/>
			</g>
			<g>
				<defs>
					<path id="SVGID_20_" d="M264.9,338.7c20.3-98.8,25.3-115.4,66-108.7c37.7,6.2,34.6,35.8,14.5,126.1
						C336.5,396.5,255.1,386.9,264.9,338.7z"/>
				</defs>
				<clipPath id="SVGID_21_">
					<use xlink:href="#SVGID_20_"  style="overflow:visible;"/>
				</clipPath>
				<g class="st34">
					
						<radialGradient id="SVGID_22_" cx="319.0253" cy="266.8392" r="36.5854" gradientTransform="matrix(1 0 0 1.0511 0 -13.6446)" gradientUnits="userSpaceOnUse">
						<stop  offset="0.7925" style="stop-color:#3E5786"/>
						<stop  offset="1" style="stop-color:#323A6E"/>
					</radialGradient>
					<path class="st35" d="M331,230.1c-30.6-5.1-41.1,3.1-53,49.5c1.9,19.2,19.7,26.5,22.4,26.7c4.3,0.4,22.2,4.3,33.8-11.3
						c7.8-10.5,18.8-13.4,25.2-14.2C362.5,247.7,355.1,234.1,331,230.1z"/>
					<path class="st16" d="M330.7,231.8c-3.4-0.7-6.8-1.3-10.2-1.6c-3.4-0.3-6.8-0.3-10.2,0.3c-0.8,0.1-1.6,0.4-2.5,0.5
						c-0.8,0.3-1.6,0.5-2.4,0.8c-1.6,0.6-3,1.4-4.5,2.3c-2.7,1.9-5.2,4.3-7.1,7.1c-1.9,2.8-3.6,5.8-5,9c-1.4,3.2-2.6,6.4-3.6,9.7
						c-2.1,6.6-3.8,13.4-5.1,20.2l0.1-0.8l0,0c0.6,4,1.8,7.9,3.8,11.3c2,3.4,4.8,6.4,8,8.9c1.6,1.2,3.4,2.3,5.2,3.2
						c0.9,0.4,1.8,0.9,2.7,1.1l0.3,0.1l0.2,0c0.1,0,0.1,0,0.3,0.1l0.4,0.1l1.6,0.2c2.1,0.3,4.2,0.5,6.2,0.5c1,0,2.1-0.1,3.1-0.1
						c1-0.1,2-0.2,3-0.4l1.5-0.3l1.5-0.4c0.5-0.1,1-0.3,1.4-0.4l1.4-0.5c0.9-0.4,1.8-0.9,2.7-1.3c0.8-0.6,1.7-1,2.5-1.6l1.2-0.9
						c0.4-0.3,0.8-0.6,1.1-1l1.1-1.1c0.4-0.4,0.7-0.7,1-1.1c0.6-0.8,1.2-1.5,1.9-2.4c0.7-0.9,1.4-1.9,2.2-2.7c3-3.5,6.7-6.6,10.8-9
						c4.1-2.4,8.6-4.2,13.3-5.5l-4.1,4.3l0,0c0.2-5.4,0.6-10.7,0.5-15.9c-0.1-5.2-0.6-10.3-2.1-14.9c-1.4-4.6-4-8.6-8-11.6
						C341.1,234.8,335.9,232.9,330.7,231.8z M331.2,228.3c2.8,0.3,5.6,0.8,8.5,1.5c2.8,0.7,5.7,1.6,8.4,3c2.7,1.4,5.3,3.2,7.5,5.6
						c2.2,2.3,4,5,5.3,7.9c1.3,2.9,2.2,5.8,2.8,8.8c0.6,3,0.9,5.9,1.1,8.8c0.3,5.9,0,11.6-0.7,17.2l0,0l-1.1,4.4l-3.1-0.2
						c-7.8-0.4-16,2.6-21.6,8.4c-0.7,0.7-1.4,1.5-2,2.3l-2.3,2.6c-0.4,0.5-0.8,0.8-1.2,1.2l-1.3,1.2c-0.4,0.4-0.9,0.8-1.4,1.1
						l-1.4,1.1c-3.8,2.7-8.3,4.4-12.9,5.2c-1.1,0.2-2.3,0.3-3.4,0.5c-1.1,0.1-2.3,0.2-3.4,0.1c-2.3,0-4.6-0.1-6.8-0.4l-1.6-0.2
						c-0.3,0-0.5,0-0.9-0.1l-0.6-0.1l-0.5-0.1c-1.3-0.4-2.3-0.8-3.4-1.3c-2.1-1-4.1-2.2-6-3.5c-3.7-2.8-7-6.2-9.5-10.3
						c-2.4-4.1-3.8-8.7-4.1-13.4l0,0l0-0.5l0.1-0.3c1.1-3.3,2.1-6.7,3.3-10.1c1.1-3.3,2.2-6.7,3.5-10c2.5-6.6,5.4-13.2,9.6-19
						c2.1-2.9,4.7-5.6,7.7-7.6c3.1-2,6.5-3.4,10.1-4c3.6-0.7,7.2-0.9,10.7-0.8C324.2,227.6,327.7,227.9,331.2,228.3z"/>
				</g>
			</g>
			<g>
				<g>
					<path class="st0" d="M314.3,250.8c23.6,4.4,22.2,23.5,15.8,33.7c-6.5,10.5-15.3,8-15.3,8l-0.4,6.7l-12.6,1l-9-7.8l3.1-5
						c0,0-7.8-1.9-8.5-11.1C286.8,268.7,291.1,246.4,314.3,250.8z"/>
					<path class="st16" d="M314.8,248.3c2.8,0.5,5.5,1.3,8.2,2.4c2.7,1.1,5.2,2.7,7.4,4.8c2.2,2.1,3.9,4.7,5,7.5
						c1.1,2.8,1.4,5.9,1.3,8.8c-0.1,2.9-0.7,5.8-1.7,8.5c-1,2.7-2.4,5.3-4.2,7.7c-1.8,2.3-4.1,4.5-7,5.8c-1.4,0.7-3,1.1-4.5,1.3
						c-0.8,0.1-1.6,0.1-2.4,0.1c-0.4,0-0.8,0-1.2-0.1c-0.2,0-0.4-0.1-0.6-0.1c-0.2,0-0.4-0.1-0.7-0.2l3.2-2.2l-0.4,6.7l-0.1,2.2
						l-2.2,0.2l0,0l-12.7-0.8l-0.4,0l-0.1-0.2l0,0l-10.2-6.4l-1.5-0.9l1-2.3l0,0l3.1-5l1.5,3.7c-0.5-0.1-0.8-0.3-1.2-0.4
						c-0.3-0.1-0.7-0.3-1-0.4c-0.7-0.3-1.3-0.7-1.9-1.1c-1.2-0.8-2.3-1.8-3.2-3c-1.9-2.3-2.8-5.3-3-8.1c-0.2-2.8,0.1-5.4,0.5-8
						c0.5-2.6,1.3-5.1,2.4-7.5c1.1-2.4,2.5-4.7,4.4-6.8c1.8-2,4.2-3.7,6.7-4.9c2.5-1.2,5.3-1.7,8-1.9
						C309.6,247.6,312.2,247.9,314.8,248.3z M313.9,253.2c-4.5-0.8-9-0.7-12.9,1c-3.8,1.7-6.8,5.1-8.6,9.2c-0.9,2-1.6,4.2-2,6.4
						c-0.4,2.2-0.6,4.5-0.5,6.6c0.2,2.1,0.8,3.9,2,5.4c0.6,0.8,1.3,1.4,2.1,2c0.4,0.3,0.8,0.5,1.3,0.7c0.2,0.1,0.4,0.2,0.7,0.3
						c0.2,0.1,0.5,0.2,0.5,0.2l3.3,0.9l-1.8,2.9l-3.1,5l0,0l-0.5-3.2l7.9,9.1l0,0l-0.5-0.2l12.5-2.7l0,0l-2.3,2.3l0.4-6.7l0.2-2.8
						l3,0.6l0.2,0c0.1,0,0.2,0,0.4,0.1c0.2,0,0.5,0,0.8,0.1c0.5,0,1.1,0,1.6-0.1c1.1-0.1,2.1-0.4,3.1-0.9c2-0.9,3.7-2.4,5.2-4.3
						c2.9-3.7,4.6-8.6,4.9-13.3c0.1-2.4-0.2-4.7-1-6.9c-0.8-2.1-2.1-4.1-3.7-5.7c-1.7-1.6-3.7-2.9-5.9-3.8
						C318.7,254.4,316.3,253.7,313.9,253.2z"/>
				</g>
				<circle class="st30" cx="320.2" cy="275.5" r="5"/>
				<circle class="st30" cx="298.6" cy="270.5" r="5"/>
				<g>
					<line class="st0" x1="307.3" y1="299.8" x2="307.8" y2="290.1"/>
					<polygon class="st16" points="305.2,299.7 307.8,290.1 309.3,299.9 					"/>
				</g>
				<g>
					<line class="st0" x1="298" y1="296.4" x2="302.8" y2="288.2"/>
					<polygon class="st16" points="296.2,295.3 302.8,288.2 299.7,297.4 					"/>
				</g>
			</g>
			<path class="st31" d="M295.1,246c0,0,5.6-15.8,30-11.7C325.1,234.3,305.4,235.2,295.1,246z"/>
			<g>
				<path class="st25" d="M379.1,326.3c-8.5,13.9-23.7,17.2-37.6,8.7c-13.9-8.5-19.2-22.7-10.7-36.6s26.7-18.2,40.6-9.7
					C385.3,297.3,387.6,312.5,379.1,326.3z"/>
				<path class="st16" d="M382.1,328.2c-2.2,3.4-4.9,6.5-8.2,8.9c-3.3,2.4-7.2,4.2-11.2,4.9c-4,0.8-8.2,0.5-12.1-0.5
					c-3.9-1-7.5-2.7-10.7-4.9c-3.2-2.1-6.1-4.7-8.6-7.8c-2.5-3-4.3-6.6-5.4-10.4c-1-3.8-1-7.9-0.2-11.7c0.8-3.8,2.5-7.3,4.7-10.5
					c4.3-6.4,11.1-11,18.7-12.8c7.5-1.9,15.8-0.8,22.8,2.9c3.4,1.9,6.6,4.3,9.2,7.4c2.6,3.1,4.5,6.9,5.4,10.9c0.9,4,0.8,8.2,0,12.2
					c-0.4,2-1,3.9-1.8,5.8C384,324.7,383.2,326.5,382.1,328.2z M376.1,324.5c0.8-1.5,1.7-2.9,2.4-4.4c0.7-1.5,1.3-3,1.7-4.6
					c0.8-3.1,1.1-6.4,0.5-9.6c-0.5-3.2-1.8-6.2-3.7-8.8c-1.9-2.7-4.5-4.9-7.4-6.7c-2.9-1.8-6.1-3-9.5-3.7c-3.4-0.6-6.9-0.5-10.2,0.1
					c-3.4,0.7-6.6,2.1-9.5,3.9c-2.9,1.9-5.4,4.4-7.4,7.2c-2,2.9-3.4,6.1-4.2,9.4c-0.7,3.3-0.6,6.8,0.4,10.1c0.9,3.3,2.8,6.2,5,8.8
					c2.3,2.6,5,4.7,8,6.5c3,1.8,6.2,3,9.4,3.7c3.3,0.6,6.6,0.6,9.7-0.2c3.1-0.8,6-2.3,8.5-4.3C372.4,330,374.5,327.4,376.1,324.5z"
					/>
			</g>
			<path class="st31" d="M252.8,284.8c0,0,2.5-16.3,22.1-14.6C274.9,270.2,259.5,273.1,252.8,284.8z"/>
			<path class="st31" d="M338,307.6c0,0,2.5-16.3,22.1-14.6C360.1,293,344.7,295.8,338,307.6z"/>
			<g>
				<path class="st15" d="M368.8,422.5c-2.7,0-6.3-0.3-11.7-0.8c-19.7-2-21.2-10.1-21.2-22.1c0-11.8-0.6-19.9-8.9-23.1
					c-2-8.7-0.4-14.8,4.7-18.1c4.1-2.7,9.5-3.1,12.3-3.1c0.6,0,1,0,1.4,0c16.3,10.8,14.9,40.2,14.9,40.5l-0.1,2.1l2.1,0.5
					c8.8,2,12.8,5.8,14.6,8.7c1.5,2.5,2.1,5.2,1.5,7.6C376.8,421,376.4,422.5,368.8,422.5C368.8,422.5,368.8,422.5,368.8,422.5z"/>
				<path class="st16" d="M344,357.7c0.2,0,0.4,0,0.5,0c14.5,10.3,13.2,37.6,13.2,37.9l-0.2,4.2l4.1,0.9c6.2,1.4,10.8,4.1,13,7.6
					c1.2,1.9,1.6,4,1.2,5.7c-0.4,1.6-1.1,4.4-1.8,5.1c-0.3,0.3-1.3,0.8-5.2,0.8c-2.6,0-6.2-0.2-11.5-0.8c-18.1-1.9-19-8.4-19-19.6
					c0-9.6,0-20.4-9.2-24.9c-2-10.4,2.4-13.3,3.9-14.3C336.8,358,342,357.7,344,357.7 M344,352.7c-3.1,0-9.1,0.5-13.7,3.5
					c-5.1,3.3-8.7,9.8-5.4,22.1c7.7,2.3,8.5,8.8,8.5,21.2c0,12.4,1.6,22.4,23.4,24.6c5.1,0.5,9,0.8,12,0.8c9,0,10.2-2.7,11.9-9.8
					c1.6-6.5-2.7-16-18-19.4c0,0,1.7-31.7-16.6-43.1C346.2,352.8,345.4,352.7,344,352.7L344,352.7z"/>
			</g>
			<g>
				<g>
					<polygon points="213.2,249.2 310.1,335.6 302.1,360.1 287.4,358.6 222.8,306.5 227.8,295.8 192.2,268.5 200,250.2 					"/>
					<path class="st19" d="M214.6,245c7.8,8.5,15.7,16.3,23.7,23.9c8,7.6,16.1,14.9,24.3,22c8.2,7.1,16.5,14,25.1,20.7
						c8.6,6.7,17.3,13.3,26.6,19.4l3.7,2.5l-2,4l-11.5,23.4l-0.9,1.9l-1.7-0.2l-14.7-1.5l-0.7-0.1l-0.6-0.5l-64.6-52.1l-1.5-1.2
						l0.8-1.8l5-10.7l0.7,3l-35.5-27.2l-1.5-1.1l0.7-1.8l7-18.7l0.6-1.7l2.2-0.3C204.6,246.1,209.5,245.5,214.6,245z M211.7,253.4
						c-3.7,0.2-7.5,0.2-11.5,0.1l2.9-2.1l-8.6,18l-0.8-3l35.5,27.2l1.6,1.2l-0.8,1.8l-5,10.7l-0.7-3l64.6,52.1l-1.3-0.5l14.7,1.5
						l-2.6,1.7l4.6-25.6l1.7,6.5c-6.9-8.3-14.3-16.1-21.9-23.8c-7.6-7.7-15.4-15.2-23.4-22.5c-8-7.3-16-14.4-24.2-21.2
						C228.4,265.9,220.1,259.3,211.7,253.4z"/>
				</g>
				<g>
					<polygon class="st19" points="214.6,249.8 206.9,269.1 206.4,267.4 240,295.2 240.9,295.9 240.5,296.9 236.4,307.1 
						235.9,305.3 304.3,357.4 299.9,362.9 234.1,307.7 233.2,306.9 233.6,305.9 237.7,295.8 238.1,297.5 204.5,269.7 203.7,269 
						204.1,268 211.8,248.7 					"/>
				</g>
				<g>
					<path d="M219.5,354.1c21.7-4.7,22.6-32.1,22.6-32.1l10.8-1.2l9.5,7.6c0,0-7.9,32.7-26,37.8l-9.7-1.4L219.5,354.1z"/>
					<path class="st19" d="M218.1,353.6c0.5-0.3,1.1-0.7,1.8-1c0.3-0.1,0.7-0.3,1-0.4c0.3-0.1,0.4-0.1,0.6-0.2l1.2-0.4l1.1-0.5
						c1.5-0.7,3-1.5,4.3-2.5c2.7-1.9,4.9-4.5,6.6-7.3c1.7-2.9,3.1-6,4-9.3c0.9-3.2,1.6-6.7,1.8-10l0.1-1.3l1.3-0.1l10.8-1.2l0.6-0.1
						l0.5,0.4l9.5,7.6l0.7,0.6l-0.2,0.9l0,0c-0.9,4-2.1,7.8-3.5,11.6c-1.4,3.8-3,7.5-5,11.1c-2,3.6-4.3,7.1-7.2,10.2
						c-2.9,3.1-6.6,5.8-11,7.2l0,0l-0.9,0.2l-0.3-0.1l-9.5-2.7l0,0l-0.7-0.1l-0.4-0.5c-1.3-2-2.7-4-3.9-6
						C220.4,357.6,219.3,355.6,218.1,353.6z M220.9,354.7c1.3,1.6,2.6,3.1,3.7,4.6c1.2,1.5,2.3,3.1,3.4,4.7l-1-0.6l0,0l9.9,0.1
						l-1.2,0.1l0,0c3.3-0.8,6.3-2.7,9-5.3c2.7-2.5,5-5.6,7-8.8c2-3.3,3.8-6.7,5.3-10.3c1.5-3.6,2.9-7.3,4-11l0,0l0.5,1.5L252,322
						l1.1,0.3l-10.8,1.2l1.3-1.4c-0.2,3.7-0.9,7.2-1.9,10.7c-1,3.5-2.4,6.9-4.3,10c-1.9,3.1-4.4,6-7.4,8.2c-1.5,1.1-3.1,2-4.8,2.8
						l-1.3,0.5l-1.3,0.5l-0.6,0.2c-0.1,0-0.2,0-0.3,0C221.5,355,221.3,354.8,220.9,354.7z"/>
				</g>
				<polyline class="st27" points="219.5,354.1 229.8,354.8 236.5,366.3 				"/>
				<line class="st36" x1="206.3" y1="267.4" x2="192.2" y2="268.5"/>
				<line class="st36" x1="236" y1="306.5" x2="222.8" y2="306.5"/>
			</g>
			<g>
				<radialGradient id="SVGID_23_" cx="220.3567" cy="265.5721" r="112.2901" gradientUnits="userSpaceOnUse">
					<stop  offset="0" style="stop-color:#ECAD13"/>
					<stop  offset="1" style="stop-color:#CC0952"/>
				</radialGradient>
				<path class="st37" d="M201.8,224.3l-2.7,17.1l-5.9-34.8l-6.6,31.5l-9.5-15.2l1.8,11.4l-49.2-32l46.6,37.4l-21.6-2.8l25.5,9.7
					l-28.9,10.3l34.2-0.8l-12.3,4.8c0,0,26.3,4.1,31.4-2.7S201.8,224.3,201.8,224.3z"/>
				<path class="st38" d="M201.8,224.8l-1.1,8.4c-0.3,2.8-0.8,5.5-1.2,8.2l-0.5,3l-0.5-3l-5.9-34.8l1,0l-6.6,31.5l-0.3,1.2l-0.7-1.1
					l-9.5-15.2l0.9-0.3l1.8,11.4l0.2,1.1l-0.9-0.6l-49.2-32l0.6-0.8l46.6,37.4l1.4,1.1l-1.8-0.2l-21.6-2.8l0.2-1l25.5,9.7l1.3,0.5
					l-1.3,0.5l-28.9,10.3l-0.2-1l34.2-0.8l2.8-0.1l-2.6,1l-12.3,4.8l-0.1-1l0,0c5.6,0.2,11.1,0.3,16.6,0.1c2.7-0.2,5.4-0.4,8-1
					c2.5-0.5,5-1.5,5.6-3.1c0.4-0.9,0.7-2.1,0.9-3.4c0.1-1.3,0.2-2.6,0.2-3.9c0-2.7-0.3-5.4-0.6-8.1c-0.3-2.7-0.7-5.5-1.2-8.2
					l-0.7-4.1l-0.4-2.1l-0.2-1l-0.1-0.5l0-0.3l0-0.1l0,0l0,0c0,0,0,0.1,0,0.1C201.4,224.7,201.7,224.8,201.8,224.8z M201.8,223.8
					c0.1,0,0.4,0.1,0.5,0.3l0.1,0.2l0,0.1l0.1,0.2l0.2,0.5l0.4,1l0.7,2c0.5,1.3,0.9,2.7,1.3,4c0.8,2.7,1.5,5.4,2,8.2
					c0.6,2.8,1,5.6,1.1,8.5c0.1,1.4,0.1,2.9-0.1,4.4c-0.2,1.5-0.4,3.1-1.1,4.7c-0.2,0.4-0.5,0.8-0.7,1.2c-0.3,0.4-0.6,0.8-1,1.1
					c-0.3,0.3-0.7,0.6-1.1,0.8c-0.4,0.2-0.7,0.5-1.1,0.6c-1.5,0.7-3,1.1-4.4,1.4c-2.9,0.5-5.8,0.7-8.7,0.6
					c-5.7-0.2-11.3-0.9-16.8-2.3l0,0l-1.8-0.3l1.7-0.7l12.3-4.8l0.2,1l-34.2,0.8l-3.1,0.1l2.9-1l28.9-10.3l0,0.9l-25.5-9.7l-4-1.5
					l4.2,0.6l21.6,2.8L176,240l-46.6-37.4l0.6-0.8l49.2,32l-0.8,0.5l-1.8-11.4l-0.4-2.4l1.3,2.1l9.5,15.2l-0.9,0.2l6.6-31.5l0.5-2.6
					l0.4,2.6l5.9,34.8l-1,0c0.5-2.9,1-5.9,1.5-8.8L201.8,223.8z"/>
			</g>
			<g>
				<path class="st15" d="M311.9,365.5c-16.4,0-31.7-7.9-36.9-13.3c-4.4-4.5-6.3-11.9-4.3-16.6c1.2-2.9,3.7-4.3,7.4-4.3
					c2.8,0,6.1,0.8,9.9,2.4c4.7,2,9.4,3,14,3c0,0,0,0,0,0c15.5,0,25.2-11.2,27.6-14.2c1.2-0.3,3.8-1,6.9-1c9.9,0,15.7,6.3,17.1,18.6
					C343.3,357,329.3,365.5,311.9,365.5C311.9,365.5,311.9,365.5,311.9,365.5z"/>
				<path class="st16" d="M336.4,324.1c8.3,0,13.1,5.1,14.5,15.5c-9.6,15.5-22.7,23.3-39,23.3c-17.2,0-31.3-8.6-35.2-12.5
					c-4-4.1-5.2-10.5-3.8-13.9c0.5-1.2,1.6-2.8,5.1-2.8c2.4,0,5.4,0.8,8.9,2.2c5,2.1,10.1,3.2,15,3.2c15.6,0,25.7-10.5,29-14.5
					C332.1,324.5,334.1,324.1,336.4,324.1 M336.4,319.1c-4.7,0-8.4,1.3-8.4,1.3s-9.6,13.8-26,13.8c-4,0-8.3-0.8-13.1-2.8
					c-4.3-1.8-7.9-2.6-10.9-2.6c-13.5,0-13.1,16.7-4.8,25.1c5.3,5.5,21.2,14,38.7,14c15.3,0,32-6.5,44.2-27.2
					C354.2,322.6,344,319.1,336.4,319.1L336.4,319.1z"/>
			</g>
			<g>
				<path class="st25" d="M315.3,367.8c-9.6,0-19.3-2.3-25.5-5.9c5.8-5.1,8.8-10.2,9.1-15.3c0.3-4.5-1.5-9-5.4-13.8
					c6.2-1.7,18.2-4.9,23.6-5.7c1.1-0.2,2.1-0.2,3.1-0.2c8.7,0,12.8,6.1,14.6,11.3c3.4,9.3,1.7,21.7-3.5,26
					C328.5,366.4,322.5,367.8,315.3,367.8z"/>
				<path class="st16" d="M320.2,324.4v5c5.8,0,10,3.2,12.3,9.6c3.2,8.9,1.1,20-2.7,23.2c-1.8,1.5-6.5,3.1-14.4,3.1
					c-7.7,0-15.5-1.6-21.3-4.1c4.6-4.8,7-9.6,7.3-14.5c0.2-4.2-1-8.3-3.7-12.5c6.5-1.7,15.4-4,19.7-4.7c1-0.1,1.9-0.2,2.8-0.2
					L320.2,324.4 M320.2,324.4c-1.1,0-2.3,0.1-3.5,0.3c-7.5,1.1-27.8,6.8-27.8,6.8c11,11,10,20.2-3.2,30.6c6.8,5.4,19,8.3,29.7,8.3
					c7.5,0,14.2-1.4,17.6-4.3C343.1,357.6,341.7,324.4,320.2,324.4L320.2,324.4z"/>
			</g>
			<path class="st24" d="M211.5,296.9c-1.4-12.6,9.1-19.9,18.3-15c9.2,4.9,14.8,22.3,2.1,28.8C218.8,317.3,212.2,303.4,211.5,296.9z
				"/>
			<g>
				<path class="st25" d="M368.8,422.5c-2.7,0-6.3-0.3-11.7-0.8c-19.6-2-20.3-6.4-22.1-18l-0.2-1.3c-1.7-10.9-1.7-10.9-0.4-17.4
					l0.1-0.8c1.5-7.7,10.4-12.5,17.7-12.5c2,0,6.8,0.4,8.1,4.1c2,5.7,0.6,16.1-0.1,19.6c-0.3,1.3,0.6,2.6,1.9,2.9
					c8.8,2,12.8,5.8,14.6,8.7c1.5,2.5,2.1,5.2,1.5,7.6C376.8,421,376.4,422.5,368.8,422.5z"/>
				<path class="st16" d="M352.3,369.1v5c1.1,0,4.9,0.2,5.7,2.4c1.8,5.1,0.5,15-0.2,18.3c-0.5,2.7,1.2,5.3,3.8,5.8
					c6.2,1.4,10.8,4.1,13,7.6c1.2,1.9,1.6,4,1.2,5.7c-0.4,1.6-1.1,4.4-1.8,5.1c-0.3,0.3-1.3,0.8-5.2,0.8c-2.6,0-6.2-0.2-11.5-0.8
					c-8.9-0.9-14.1-2.5-16.4-4.9c-1.9-2-2.5-5.2-3.4-11.1l-0.1-0.5l-0.1-0.8c-1.6-10.4-1.6-10.4-0.4-16.6l0.1-0.8
					c1.2-6.5,8.9-10.5,15.3-10.5L352.3,369.1 M352.3,369.1c-8.2,0-18.4,5.3-20.2,14.5c-1.5,8-1.6,7.3,0.4,19.9
					c1.9,12.5,2.5,18.4,24.4,20.7c5.1,0.5,9,0.8,12,0.8c9,0,10.2-2.7,11.9-9.8c1.6-6.5-2.7-16-18-19.4c0,0,2.6-13.4,0-20.9
					C361.4,371,357.2,369.1,352.3,369.1L352.3,369.1z"/>
			</g>
		</g>
		<g id="GUY_3_">
			<g>
				<path class="st17" d="M207.9,775.1c-39.2-24.1-48.7-66.9-24.6-106.1c24.1-39.2,64.1-54.4,103.3-30.3s51.5,75.4,27.5,114.6
					C289.9,792.5,247.1,799.2,207.9,775.1z"/>
				<path class="st16" d="M202.4,784c-9.6-6.2-18.4-14-25.3-23.4c-6.9-9.4-11.9-20.4-14-32c-2.1-11.5-1.5-23.3,1.4-34.3
					c2.8-11,7.8-21.2,14-30.3c6.1-9.1,13.4-17.4,22.1-24.3c4.3-3.5,9-6.5,13.9-9.1c4.9-2.6,10.2-4.6,15.6-6c5.4-1.4,11-2.2,16.6-2.3
					c5.6-0.1,11.1,0.6,16.5,1.8c5.4,1.2,10.6,3,15.6,5.3c5,2.3,9.7,5,14.2,8c9,6.2,16.9,14,23.1,23.1c6.2,9,10.8,19.2,13.4,29.9
					c5.4,21.3,2.5,44.9-8.3,64.6c-5.3,9.8-12.2,18.9-21.1,26.3c-8.8,7.4-19.6,12.9-31.1,15.5c-11.5,2.7-23.5,2.5-34.8,0.1
					c-5.7-1.2-11.2-2.9-16.5-5c-2.7-1.1-5.3-2.2-7.8-3.5c-1.3-0.6-2.5-1.3-3.8-2C204.8,785.5,203.6,784.8,202.4,784z M213.3,766.2
					c2.1,1.1,4.1,2.3,6.1,3.5c2,1.1,4.1,2.2,6.2,3.2c4.2,1.9,8.5,3.5,13,4.7c8.8,2.3,18,3.1,26.8,1.6c8.8-1.5,17.3-5,24.8-10.4
					c7.5-5.4,13.8-12.6,18.9-20.7c5.1-8.1,8.6-17.1,10.3-26.6c1.7-9.5,1.6-19.3-0.3-28.8c-2-9.5-5.8-18.7-11.1-26.8
					c-5.4-8.1-12.4-15.2-20.4-20.8c-8.1-5.5-17.1-9.8-26.6-11.7c-9.4-2-19.2-1.6-28.4,1.1c-9.2,2.7-17.6,7.8-24.8,14.1
					c-7.2,6.4-13.3,14.2-18.2,22.6c-4.9,8.4-8.5,17.4-10.3,26.6c-1.7,9.2-1.6,18.5,0.7,27.3c2.2,8.8,6.4,16.9,12.2,23.8
					C198.1,755.7,205.3,761.6,213.3,766.2z"/>
			</g>
			<g>
				<path class="st15" d="M193.2,950.6c-25.2,0-49.1-6.1-67.4-17.3c-20-12.2-33.1-30.1-37.9-51.8c-21.2-95.2-35.3-164.9-40.6-217.9
					c-5.4-54.3-1.1-88.3,13.8-110.3c12.2-18,32.6-28.9,64.1-34.1c15.4-2.5,28.2-3.8,39.1-3.8c40.4,0,62.9,16.9,82.7,62.3
					c21.4,48.8,38.6,129,64.5,255.4c6,29.2,0.5,54.5-16.4,75.1C273.7,934.4,234.7,950.6,193.2,950.6
					C193.2,950.6,193.2,950.6,193.2,950.6z"/>
				<path class="st16" d="M164.2,521.9c18.8,0,32.9,3.9,44.3,12.2c12.3,9,22.6,23.7,32.5,46.2c21.1,48.1,39.1,131.8,64.1,254.1
					c5.6,27.2,0.5,50.6-15.1,69.7c-20.1,24.7-57.2,40-96.8,40c-24,0-46.7-5.8-64.1-16.3c-18.7-11.4-30.5-27.4-35-47.7
					c-21.1-95-35.2-164.4-40.4-217.1c-5.1-51.9-1.1-85.6,12.7-106c11.1-16.5,30.1-26.4,59.8-31.3
					C141.2,523.1,153.6,521.9,164.2,521.9 M164.2,508.9c-11.9,0-25.2,1.4-40.2,3.9C13.3,531.1,22.6,617.9,81.4,882.9
					c11.2,50.3,60.7,74.2,111.7,74.2c69.2,0,141.3-43.9,124.6-125.3C265.7,577.8,247.9,508.9,164.2,508.9L164.2,508.9z"/>
			</g>
			<g>
				<defs>
					<path id="SVGID_24_" d="M317.8,831.8C258.3,541.6,243.5,493,124,512.8C13.3,531.1,22.6,617.9,81.4,882.9
						C107.8,1001.5,346.8,973.2,317.8,831.8z"/>
				</defs>
				<clipPath id="SVGID_25_">
					<use xlink:href="#SVGID_24_"  style="overflow:visible;"/>
				</clipPath>
				<g class="st39">
					<g>
						<defs>
							<path id="SVGID_26_" d="M124,512.8c89.9-14.9,120.6,9,155.5,145.2c-5.6,56.3-57.7,77.7-65.9,78.5
								c-12.6,1.3-65.3,12.5-99.2-33.2c-22.8-30.7-55.2-39.3-74-41.7C31.3,564.5,53,524.5,124,512.8z"/>
						</defs>
						<clipPath id="SVGID_27_">
							<use xlink:href="#SVGID_26_"  style="overflow:visible;"/>
						</clipPath>
						<g class="st40">
							<g>
								<defs>
									<rect id="SVGID_28_" x="33.5" y="503.9" width="251" height="239.7"/>
								</defs>
								<clipPath id="SVGID_29_">
									<use xlink:href="#SVGID_28_"  style="overflow:visible;"/>
								</clipPath>
								<g transform="matrix(1 0 0 1 0 3.051758e-05)" style="clip-path:url(#SVGID_29_);">
									
										<image style="overflow:visible;" width="524" height="501" xlink:href="86623FA2.jpg"  transform="matrix(0.48 0 0 0.48 33.12 503.5)">
									</image>
								</g>
							</g>
						</g>
					</g>
					<path class="st16" d="M122.9,506.2c10.3-1.5,20.8-2.7,31.3-3c10.6-0.3,21.3,0.3,32,2.5l2,0.4l2,0.5l4,1l3.9,1.3l1.9,0.7
						l1.9,0.8c1.3,0.5,2.5,1,3.8,1.6l3.7,1.9c0.6,0.3,1.2,0.6,1.8,1l1.8,1.1c1.2,0.7,2.4,1.4,3.5,2.2c9.1,6.2,16.8,14.1,23,22.8
						c6.3,8.7,11.4,18,15.8,27.5c4.5,9.5,8.4,19.2,11.9,28.9c7.1,19.5,13,39.4,18.7,59.2l0.3,1l-0.1,1.2l0,0
						c-1.3,13.6-5.4,27.1-12.3,39c-6.9,11.9-16.4,22.2-27.3,30.4c-5.5,4.1-11.3,7.7-17.5,10.7c-3.1,1.5-6.3,2.9-9.9,4l-1.4,0.4
						l-1.6,0.4l-1,0.2l-0.8,0.1l-1.1,0.1l-4.7,0.6c-13,1.8-26.8,2.3-40.4,0c-13.6-2.2-27-7.3-38.5-15.4c-5.7-4-11-8.7-15.7-13.9
						c-1.1-1.3-2.4-2.6-3.4-3.9l-3.1-3.9l-2.8-3.4l-0.7-0.9l-0.7-0.8l-1.5-1.6c-1.9-2.2-4.1-4.1-6.3-6.2c-2.3-1.9-4.4-3.8-6.9-5.5
						c-4.7-3.5-9.8-6.5-15.1-9c-10.6-5.1-22.2-8.3-33.9-9.7l0,0l-7.2-1.1l-0.6-6.9c-0.7-8.2-1.2-16.5-1.5-24.8
						c-0.2-8.3-0.3-16.7,0.1-25.1c0.4-8.4,1.3-16.8,2.8-25.3c1.5-8.4,3.7-16.9,7.1-25c3.3-8.2,7.9-16,13.7-22.9
						c5.8-6.9,12.9-12.7,20.5-17.2c7.6-4.6,15.7-7.9,23.9-10.4C106.3,509.2,114.6,507.5,122.9,506.2z M125.1,519.3
						c-7.7,1.4-15.4,3.2-22.7,5.7c-7.3,2.4-14.2,5.6-20.5,9.5c-6.2,4-11.8,8.7-16.3,14.5c-4.5,5.7-8.1,12.1-10.7,19
						c-5.3,13.9-7.2,29.5-7.7,45.1c-0.2,7.8-0.1,15.8,0.3,23.7c0.4,7.9,1.1,15.9,1.8,23.8l-7.8-8l0,0c13.6,1.8,26.9,5.8,39.3,11.9
						c6.2,3,12.1,6.7,17.6,10.9c2.8,2,5.4,4.4,8,6.6c2.5,2.4,5,4.8,7.3,7.4l1.7,1.9l0.9,1l0.8,1l3.2,4.1l2.8,3.6
						c0.9,1.2,1.9,2.2,2.8,3.4c3.8,4.4,8.1,8.3,12.8,11.7c9.3,6.8,20.3,11.2,31.9,13.3c5.8,1.1,11.7,1.6,17.7,1.6
						c6,0,12-0.4,18.2-1.1l4.8-0.6l1.9-0.2l0.7-0.2l0.9-0.2c2.5-0.7,5.2-1.9,7.9-3.1c5.3-2.5,10.5-5.6,15.3-9
						c9.6-7,17.9-15.8,24-25.8c6.1-10.1,9.8-21.5,11.1-33.4l0,0l0.2,2.3c-2.3-10-4.7-19.9-7.4-29.7c-2.6-9.9-5.6-19.6-8.8-29.2
						c-3.2-9.6-6.8-19.1-11-28.2c-4.2-9.1-8.9-18-14.6-26c-5.7-8.1-12.6-15-20.4-20.5c-1-0.7-2-1.3-3-1.9l-1.5-0.9
						c-0.5-0.3-1.1-0.5-1.6-0.8l-3.2-1.6c-1.1-0.5-2.2-0.9-3.3-1.3l-1.7-0.7l-1.7-0.5l-3.5-1l-3.5-0.8l-1.8-0.4l-1.8-0.3
						c-9.6-1.5-19.5-1.5-29.4-0.6C145,516,135,517.5,125.1,519.3z"/>
				</g>
				<path class="st41" d="M175.4,522c-53-3.5-67.1,30.1-25.3,23c25.3-4.3,35.7,0.8,65.1,4.6C228.5,551.3,226,525.3,175.4,522z"/>
			</g>
			<g>
				<path class="st0" d="M159.4,556.3c-77.7,11.3-65.8,73.6-42.4,104.1c22.7,29.6,48.7,23,48.7,23l2.5,18.2l37.2,2.6l25.9-20.9
					l-9.3-13.8c0,0,26.2-6.3,28.2-32.4C252,614.1,242.4,544.2,159.4,556.3z"/>
				<path class="st16" d="M160,560.2c-8,1.2-15.9,3-23.3,5.9c-7.4,2.9-14.3,6.8-19.8,12.1c-5.6,5.3-9.6,12-11.7,19.3
					c-2.1,7.4-2.3,15.3-1.1,23.1c1.2,7.8,3.7,15.4,7.1,22.6c3.4,7.2,7.8,13.9,13.1,19.7c5.3,5.8,11.6,10.6,18.6,13.7
					c3.5,1.5,7.2,2.6,10.9,3.1c1.9,0.3,3.8,0.4,5.6,0.4c0.9,0,1.9-0.1,2.8-0.1c0.5,0,0.9-0.1,1.3-0.2l0.6-0.1l0.5-0.1l4.4-0.9
					l0.6,4.2l2.5,18.2l0,0l-3.7-3.4l37,5.4l-0.8,0.3l24.2-23.1l-0.8,5.4l0,0l-9.3-13.8l-3.2-4.7l5.6-1.4c0.3-0.1,0.7-0.2,1.1-0.3
					c0.4-0.1,0.8-0.3,1.2-0.4c0.8-0.3,1.7-0.6,2.5-1c1.6-0.7,3.2-1.6,4.8-2.5c3.1-1.9,5.8-4.1,8.1-6.7c4.7-5.2,7.2-11.9,7.4-19.1
					c0.3-7.4-0.4-15.1-1.9-22.4c-1.6-7.4-4-14.6-7.4-21.2c-3.4-6.6-7.9-12.6-13.4-17.5c-5.5-4.9-11.9-8.7-18.9-11.2
					c-7-2.5-14.4-3.8-21.9-4.2C175.2,558.6,167.6,559.1,160,560.2z M158.8,552.3c8-1.1,16.1-1.7,24.3-1.3c8.2,0.4,16.4,1.8,24.3,4.7
					c7.8,2.8,15.2,7.1,21.5,12.8c6.3,5.6,11.3,12.4,15.1,19.8c3.8,7.4,6.5,15.2,8.2,23.2c1.7,8,2.5,16.2,2.1,24.5
					c-0.1,2.1-0.4,4.3-0.8,6.4c-0.5,2.1-1,4.3-1.8,6.3c-1.6,4.1-3.9,8-6.8,11.2c-2.9,3.3-6.3,6.1-10,8.3c-1.8,1.1-3.7,2.1-5.7,3
					c-1,0.4-2,0.8-3,1.2c-0.5,0.2-1,0.4-1.5,0.5c-0.5,0.2-1,0.3-1.7,0.5l2.4-6.1l9.3,13.8l0,0l2,3.5l-2.8,1.9l-27.7,18.7l-0.4,0.3
					l-0.4,0l-37.4,0.2l-2.9,0l-0.7-3.5l0,0l-2.5-18.2l4.9,3.3c-0.5,0.1-0.7,0.2-1,0.2c-0.3,0.1-0.6,0.1-0.9,0.1
					c-0.6,0.1-1.2,0.2-1.8,0.2c-1.2,0.1-2.3,0.2-3.5,0.2c-2.3,0-4.6-0.1-6.8-0.4c-4.5-0.6-8.9-1.9-13-3.7
					c-8.3-3.6-15.5-9.2-21.3-15.6c-5.9-6.5-10.7-13.8-14.4-21.7c-3.7-7.8-6.5-16.2-7.8-24.9c-1.3-8.7-1.1-17.7,1.3-26.4
					c0.6-2.2,1.4-4.3,2.3-6.4c0.9-2.1,1.9-4.1,3.1-6c2.3-3.9,5.2-7.4,8.5-10.5c6.5-6.2,14.3-10.7,22.4-13.8
					C141.9,555.5,150.4,553.5,158.8,552.3z"/>
			</g>
			<path class="st42" d="M132.3,633.9c0.7,8.2,8.3,14.9,16.9,14.9c8.5,0.1,15-6.4,14.5-14.5c-0.5-8.3-8-15.1-16.8-15.3
				C138.1,618.9,131.6,625.6,132.3,633.9z"/>
			<path class="st42" d="M199.2,619.9c0.3,8.3,7.4,15,15.9,15.1c8.4,0.1,15.2-6.4,15-14.6c-0.1-8.3-7.2-15.3-15.8-15.5
				C205.7,604.7,198.9,611.5,199.2,619.9z"/>
			<g>
				<line class="st0" x1="189.5" y1="703.1" x2="186.8" y2="676.6"/>
				<polygon class="st16" points="185.5,703.6 186.8,676.6 193.5,702.7 				"/>
			</g>
			<g>
				<line class="st0" x1="216.5" y1="694" x2="201.4" y2="671.3"/>
				<polygon class="st16" points="213.1,696.2 201.4,671.3 219.8,691.8 				"/>
			</g>
			<path class="st31" d="M82,543.4c-17.1,10.7-12.7,31.6,23.5,9.5C127.5,539.5,105.5,528.8,82,543.4z"/>
			<g>
				<path class="st43" d="M473.7,641.4L93.5,754.8c0,0-41.4,118.3,58.6,150.6l353-101.7L473.7,641.4z"/>
				<line class="st44" x1="448" y1="667.4" x2="138.3" y2="763.8"/>
				<g>
					<line x1="443.5" y1="708.2" x2="152.6" y2="795.5"/>
					<polygon class="st19" points="445.6,715.4 153.6,798.8 151.6,792.1 441.3,701.1 					"/>
				</g>
				<g>
					<line x1="462.4" y1="747.4" x2="94.5" y2="856.9"/>
					<polygon class="st19" points="466.7,762 95.5,860.2 93.5,853.5 458,732.7 					"/>
				</g>
				<g>
					<line x1="469.3" y1="788.4" x2="122.1" y2="890.6"/>
					<polygon class="st19" points="472.1,798.2 123.1,893.9 121.1,887.2 466.4,778.7 					"/>
				</g>
				
					<ellipse transform="matrix(0.9861 -0.1661 0.1661 0.9861 -113.3052 91.0045)" class="st43" cx="487.5" cy="723" rx="56.3" ry="82.7"/>
				
					<ellipse transform="matrix(0.9861 -0.1661 0.1661 0.9861 -113.3052 91.0045)" class="st19" cx="487.5" cy="723" rx="21.4" ry="31.5"/>
				
					<ellipse transform="matrix(0.9861 -0.1661 0.1661 0.9861 -104.0313 88.5488)" class="st45" cx="477.4" cy="666.3" rx="14.2" ry="20.8"/>
				
					<ellipse transform="matrix(0.9861 -0.1661 0.1661 0.9861 -122.7089 93.3774)" class="st44" cx="497" cy="780.4" rx="14.2" ry="20.8"/>
				
					<ellipse transform="matrix(0.9861 -0.1661 0.1661 0.9861 -111.7746 97.5445)" class="st44" cx="527.3" cy="717.1" rx="14.2" ry="20.8"/>
				
					<ellipse transform="matrix(0.9861 -0.1661 0.1661 0.9861 -114.8331 84.3515)" class="st44" cx="446.9" cy="728.8" rx="14.2" ry="20.8"/>
				
					<ellipse transform="matrix(0.9861 -0.1661 0.1661 0.9861 -105.4684 93.8158)" class="st44" cx="508.2" cy="677.5" rx="14.2" ry="20.8"/>
				
					<ellipse transform="matrix(0.9861 -0.1661 0.1661 0.9861 -118.9926 97.3388)" class="st45" cx="522.5" cy="760.1" rx="14.2" ry="20.8"/>
				
					<ellipse transform="matrix(0.9861 -0.1661 0.1661 0.9861 -121.0711 88.0332)" class="st45" cx="465.8" cy="767.9" rx="14.2" ry="20.8"/>
				
					<ellipse transform="matrix(0.9861 -0.1661 0.1661 0.9861 -107.992 84.5289)" class="st44" cx="451.4" cy="688" rx="14.2" ry="20.8"/>
			</g>
			<g>
				<path class="st25" d="M117.6,781.3C92,823,46.5,833.1,4.8,807.5S-53,739.4-27.4,697.7c25.6-41.7,80.1-54.8,121.9-29.2
					S143.2,739.6,117.6,781.3z"/>
				<path class="st16" d="M126.6,786.8c-6.6,10.1-14.8,19.4-24.7,26.8c-9.9,7.3-21.6,12.6-33.7,14.8c-12.2,2.3-24.7,1.6-36.3-1.4
					c-11.7-3-22.4-8.3-32.1-14.7c-9.6-6.4-18.5-14.2-25.8-23.3c-3.7-4.6-6.9-9.5-9.7-14.7c-2.7-5.2-4.9-10.7-6.4-16.5
					c-1.5-5.7-2.3-11.6-2.4-17.5c-0.1-5.9,0.6-11.8,1.8-17.5c1.3-5.7,3.2-11.3,5.6-16.5c2.4-5.3,5.3-10.3,8.5-15.1
					c6.5-9.6,14.9-17.9,24.5-24.4c9.5-6.6,20.3-11.4,31.7-14.1c11.3-2.8,23.2-3.5,34.8-2c11.7,1.5,23.1,5.2,33.5,10.8
					c10.3,5.6,20,13,27.8,22.4c7.8,9.3,13.6,20.7,16.3,32.8c2.8,12.1,2.6,24.8,0,36.7c-1.3,6-3.1,11.8-5.3,17.4
					c-1.1,2.8-2.4,5.6-3.7,8.3c-0.7,1.3-1.3,2.7-2.1,4C128.1,784.2,127.3,785.5,126.6,786.8z M108.7,775.8c1.2-2.2,2.5-4.4,3.7-6.5
					c1.2-2.2,2.3-4.4,3.4-6.7c2.1-4.5,3.8-9.2,5-13.9c2.5-9.5,3.2-19.3,1.6-28.8c-1.6-9.5-5.4-18.6-11.2-26.5
					c-5.8-8-13.5-14.8-22.2-20.2c-8.6-5.4-18.3-9.1-28.4-11c-10.1-1.8-20.6-1.6-30.8,0.4c-10.1,2.1-19.9,6.2-28.6,11.9
					c-8.7,5.8-16.2,13.2-22.2,21.7c-5.9,8.6-10.4,18.3-12.5,28.4c-2.2,10.1-1.7,20.5,1.2,30.3c1.4,4.9,3.5,9.6,6.1,14
					c2.6,4.4,5.6,8.6,9,12.5c6.8,7.7,15.1,14.2,24.1,19.5c9,5.2,18.5,9.1,28.4,11c9.8,1.9,19.8,1.7,29.2-0.6
					c9.4-2.3,18.1-6.9,25.6-13C97.5,792.2,103.7,784.4,108.7,775.8z"/>
			</g>
			<g>
				<path class="st15" d="M101.4,825.1c-38.2,0-70.4-6.5-86.3-17.5c-23.3-16.1-25.6-41.2-19.9-59.4c6.1-19.6,23.6-39.4,49-39.4
					c9.7,0,19.6,3,29.5,8.9c19.6,11.7,43,16.8,63.6,21.3c26.8,5.8,49.9,10.9,55,27.9c3.8,12.7-1.1,28.9-13.4,44.5
					C173.5,817.9,141.2,825.1,101.4,825.1C101.4,825.1,101.4,825.1,101.4,825.1z"/>
				<path class="st16" d="M44.2,713.8c8.8,0,17.9,2.7,27,8.2c20.3,12.1,44.1,17.3,65,21.8c13.6,3,26.4,5.8,35.8,9.9
					c8.8,3.9,13.6,8.4,15.4,14.5c3.3,11.1-1.2,25.7-12.5,39.9c-1.1,1.2-7.4,4.8-23.8,7.8c-14.3,2.6-31.9,4.1-49.7,4.1
					c-37.2,0-68.4-6.2-83.5-16.6C8.6,797,2.3,788.6-0.6,778.6c-2.7-9.1-2.5-19.1,0.6-28.9c3.1-10,9.1-19.1,16.8-25.6
					C24.7,717.3,34.2,713.8,44.2,713.8 M44.2,703.8c-50.8,0-80.6,74.3-31.9,107.9c19.1,13.2,55.1,18.4,89.2,18.4
					c38.2,0,74-6.5,81.3-15.7c13.8-17.4,18.5-35.1,14.3-49c-10.2-34.2-75.9-25.3-120.8-52C65,706.7,54.2,703.8,44.2,703.8
					L44.2,703.8z"/>
			</g>
			<g>
				<path class="st25" d="M96.1,710.7c-31.8-7.9-59.7,12-72.1,39.1c-16.4,35.9-8.1,83.7,30.5,88.8c67.7,9,88.9-13.2,88.9-13.2
					c-17.9,4.6-33.2,8.9-33.2,8.9c-52.8-33.6-22.8-97.7,23.8-101.4C133.9,733,118.6,716.3,96.1,710.7z"/>
				<path class="st16" d="M94.5,716.9c-10.5-2.8-21.7-2.2-31.8,2c-10.1,4.1-19,11.3-25.7,20.3c-3.3,4.5-6.2,9.3-8.4,14.5
					c-2.3,5.2-4,10.6-5.2,16.1c-2.4,11.1-2.6,22.7,0.1,33.5c1.3,5.4,3.4,10.5,6.3,15c2.9,4.5,6.7,8.3,11.2,11.1
					c2.3,1.4,4.7,2.5,7.2,3.4c1.3,0.4,2.6,0.8,3.9,1.1c1.3,0.3,2.6,0.5,4.1,0.7c5.9,0.9,11.8,1.6,17.7,2.1
					c5.9,0.5,11.9,0.9,17.8,0.8c5.9,0,11.9-0.2,17.8-0.9c3-0.3,5.9-0.8,8.8-1.3c2.9-0.6,5.8-1.3,8.7-2.1c2.9-0.8,5.7-1.8,8.4-3
					c2.7-1.2,5.4-2.6,7.8-4.5l0,0l0,0c-5.2,2.6-10.5,5.3-15.7,8c-5.2,2.7-10.4,5.4-15.5,8.1l0,0c-2,0.7-4.2,0.3-5.9-0.8l-0.2-0.1
					c-5.3-3.4-10.4-7.4-14.9-12.1c-4.5-4.7-8.4-10.2-11.2-16.2c-2.8-6-4.6-12.6-5.2-19.3c-0.5-6.7,0.1-13.4,1.9-19.8
					c3.4-12.8,10.9-24.2,20.8-32.7c5-4.2,10.6-7.8,16.6-10.4c6.1-2.6,12.6-4.2,19.2-4.7l-4.9,12.5h0c0,0-0.2-0.2-0.3-0.4l-0.4-0.4
					l-0.8-0.9c-0.6-0.6-1.2-1.2-1.8-1.8c-1.2-1.2-2.5-2.3-3.8-3.4c-2.6-2.2-5.4-4.2-8.3-6.1C107.2,721.4,101,718.6,94.5,716.9z
					 M97.6,704.5c4,0.9,7.8,2.2,11.5,3.7c3.7,1.5,7.3,3.3,10.8,5.3c3.5,2,6.8,4.1,10,6.5c1.6,1.2,3.2,2.4,4.7,3.7
					c0.8,0.6,1.5,1.3,2.3,2l1.2,1l0.6,0.5c0.2,0.2,0.4,0.4,0.7,0.6l0,0c2.8,3,2.6,7.8-0.4,10.6c-1.3,1.2-2.9,1.8-4.5,2
					c-9.9,0.8-19.6,5-27.3,11.6c-7.7,6.6-13.5,15.5-16.1,25.1c-1.3,4.8-1.8,9.8-1.4,14.7c0.4,4.9,1.7,9.7,3.8,14.1
					c4.2,9,11.7,16.4,20.6,22.1l-6.1-0.9l0,0c5.9-0.4,11.8-0.7,17.7-1c5.9-0.3,11.7-0.5,17.6-0.8l0,0l0,0c-2,2.3-4.5,4.2-7.1,5.8
					c-2.6,1.7-5.3,3.1-8.1,4.4c-5.6,2.6-11.6,4.3-17.6,5.7c-12.1,2.7-24.5,3.5-36.8,3.2c-6.2-0.2-12.3-0.6-18.4-1.2
					c-1.5-0.1-3.2-0.4-4.8-0.7c-1.6-0.3-3.3-0.7-4.9-1.2c-3.2-0.9-6.4-2.3-9.4-3.9c-6-3.3-11.1-8.1-14.9-13.7
					c-3.9-5.5-6.5-11.7-8.3-18.1c-1.7-6.4-2.5-12.9-2.5-19.3c-0.1-6.5,0.6-12.9,1.9-19.2c1.3-6.3,3.2-12.5,5.7-18.4
					c2.6-6,5.8-11.6,9.7-16.9c3.9-5.2,8.4-10,13.5-14.2c5.1-4.2,10.8-7.6,16.9-10.2c3.1-1.3,6.3-2.3,9.5-3.1
					c3.3-0.8,6.6-1.4,9.9-1.6c3.4-0.3,6.7-0.3,10.1,0C91,703.3,94.3,703.8,97.6,704.5z"/>
			</g>
			<g>
				
					<radialGradient id="SVGID_30_" cx="229.6796" cy="638.2733" r="147.5514" gradientTransform="matrix(-1.1921 1.4004 -5.3908 -3.2503 4150.4819 2442.5535)" gradientUnits="userSpaceOnUse">
					<stop  offset="0" style="stop-color:#ECAD13"/>
					<stop  offset="1" style="stop-color:#CC0952"/>
				</radialGradient>
				<path class="st46" d="M546.4,704.6L517,679.3l77.9,30.5l-51.8-49.5l44.9,0.6l-25.3-10.3l140.2-52.4l-146.8,41.3l39.4-36.4
					l-59.2,35.4l24.8-65.4l-51.9,63.9l9.8-28.4c0,0-49.3,43.6-43.8,61.1C480.6,687,546.4,704.6,546.4,704.6z"/>
				<path class="st38" d="M545.1,703.9c-5-4-10-7.9-14.9-11.7c-4.8-3.8-9.5-7.7-14.2-11.8l-6.4-5.5l7.9,3.1l77.9,30.5l-1.5,2.4
					l-51.8-49.5l-2.6-2.5l3.7,0l44.9,0.6l-0.6,2.8l-25.3-10.3l-3.4-1.4l3.5-1.3l140.2-52.4l0.9,2.7l-146.8,41.3l-5.8,1.6l4.4-4.1
					l39.4-36.4l1.7,2.3l-59.2,35.4l-3.6,2.1l1.5-3.9l24.8-65.4l2.5,1.4l-51.9,63.9l-5.1,6.3l2.6-7.7l9.8-28.4l2.3,1.5l0,0
					c-8.5,10.1-17.1,20-25,30.2c-3.9,5.1-7.7,10.3-10.6,15.6c-1.5,2.6-2.7,5.3-3.5,7.8c-0.4,1.2-0.6,2.4-0.6,3.3
					c0,0.5,0.1,0.8,0.1,1.1c0,0.3,0.2,0.6,0.4,1c0.4,0.8,1.1,1.7,2,2.7c0.9,0.9,2,1.9,3.1,2.8c2.3,1.8,4.9,3.4,7.6,5
					c5.4,3.1,11.2,6,17.1,8.7c5.9,2.7,11.9,5.3,17.9,7.8c3,1.3,6.1,2.5,9.1,3.8l4.6,1.9l2.3,1l1.1,0.5l0.6,0.2l0.3,0.1l0.1,0
					c0,0,0,0,0,0c-0.1,0-0.2,0-0.3,0c-0.2,0-0.5,0.1-0.8,0.3C545.3,703.5,545.2,703.7,545.1,703.9z M547.7,705.2
					c-0.1,0.2-0.3,0.4-0.6,0.5c-0.3,0.2-0.6,0.2-0.9,0.2l-0.5-0.1l-0.3,0l-0.6-0.1l-1.2-0.2l-2.5-0.4c-1.6-0.3-3.3-0.6-4.9-0.9
					c-3.3-0.6-6.5-1.4-9.7-2.2c-6.5-1.6-12.9-3.5-19.2-5.7c-6.3-2.3-12.6-4.7-18.8-8c-3.1-1.6-6.1-3.4-9.1-5.6
					c-1.5-1.1-3-2.3-4.4-3.7c-1.4-1.4-2.8-3.1-3.9-5.2c-0.6-1.1-1.1-2.3-1.4-3.6c-0.3-1.3-0.4-2.6-0.4-3.8c0-2.4,0.5-4.5,1.1-6.4
					c1.2-3.8,2.9-7,4.8-10.1c3.8-6,8.1-11.3,12.7-16.3c4.6-5,9.4-9.6,14.5-14c5.1-4.3,10.2-8.6,15.8-12.3l0,0l4.1-3.6l-1.8,5.2
					l-9.8,28.4l-2.5-1.4l51.9-63.9l5.6-6.9l-3.2,8.4L537.7,639l-2.1-1.7l59.2-35.4l12-7.2l-10.3,9.4l-39.4,36.4l-1.4-2.4l146.8-41.3
					l0.9,2.7l-140.2,52.4l0-2.7l25.3,10.3l7.1,2.9l-7.6-0.1l-44.9-0.6l1-2.5l51.8,49.5l5.3,5l-6.8-2.7l-77.9-30.5l1.5-2.4
					c5.1,4.4,10.2,8.9,15.2,13.5L547.7,705.2z"/>
			</g>
			<g>
				
					<radialGradient id="SVGID_31_" cx="281.1992" cy="605.1456" r="144.9032" gradientTransform="matrix(-1.1921 1.4004 -5.3908 -3.2503 4021.6216 2364.8594)" gradientUnits="userSpaceOnUse">
					<stop  offset="0" style="stop-color:#ECAD13"/>
					<stop  offset="1" style="stop-color:#CC0952"/>
				</radialGradient>
				<path class="st47" d="M532.7,806.4l-28.9-24.8l76.5,29.9l-50.8-48.6l44.1,0.6l-24.9-10.1l137.6-51.4l-144.2,40.5l38.7-35.7
					l-58.1,34.7l24.4-64.2l-51,62.8l9.6-27.9c0,0-48.4,42.9-43,60S532.7,806.4,532.7,806.4z"/>
				<path class="st38" d="M531.5,805.7c-4.9-3.9-9.8-7.7-14.6-11.5c-4.7-3.7-9.3-7.6-14-11.6l-6.4-5.5l7.9,3.1l76.5,29.9l-1.5,2.4
					l-50.8-48.6l-2.6-2.5l3.7,0l44.1,0.6l-0.6,2.8l-24.9-10.1l-3.4-1.4l3.5-1.3l137.6-51.4l0.9,2.7l-144.2,40.5l-5.8,1.6l4.4-4.1
					l38.7-35.7l1.7,2.3l-58.1,34.7l-3.6,2.1l1.5-3.9l24.4-64.2l2.5,1.4l-51,62.8l-5.1,6.3l2.6-7.7l9.6-27.9l2.3,1.5l0,0
					c-8.3,9.9-16.8,19.7-24.5,29.7c-3.8,5-7.5,10.1-10.4,15.3c-1.5,2.6-2.7,5.2-3.4,7.7c-0.4,1.2-0.5,2.3-0.5,3.2
					c0,0.5,0.1,0.8,0.1,1.1c0,0.3,0.2,0.6,0.4,1c0.4,0.8,1.1,1.7,2,2.6c0.9,0.9,1.9,1.8,3,2.7c2.3,1.8,4.8,3.4,7.5,4.9
					c5.3,3.1,11,5.9,16.8,8.5c5.8,2.7,11.7,5.2,17.6,7.7c3,1.3,6,2.5,8.9,3.7l4.5,1.9l2.2,0.9l1.1,0.5l0.6,0.2l0.3,0.1l0.1,0
					c0,0,0,0,0,0c-0.1,0-0.2,0-0.3,0c-0.2,0-0.5,0.1-0.8,0.3C531.6,805.4,531.5,805.6,531.5,805.7z M534,807.1
					c-0.1,0.2-0.3,0.4-0.6,0.5c-0.3,0.2-0.6,0.2-0.9,0.2l-0.5-0.1l-0.3,0l-0.6-0.1l-1.2-0.2l-2.4-0.4c-1.6-0.3-3.2-0.6-4.8-0.9
					c-3.2-0.6-6.4-1.4-9.6-2.2c-6.4-1.6-12.7-3.4-18.9-5.6c-6.2-2.2-12.4-4.7-18.4-7.8c-3-1.6-6-3.3-8.9-5.5
					c-1.5-1.1-2.9-2.2-4.3-3.7c-1.4-1.4-2.7-3-3.9-5.1c-0.5-1.1-1.1-2.2-1.4-3.6c-0.3-1.3-0.4-2.5-0.4-3.7c0-2.4,0.5-4.4,1-6.3
					c1.2-3.8,2.9-6.9,4.7-9.9c3.7-5.9,7.9-11.1,12.5-16c4.5-4.9,9.3-9.4,14.2-13.7c5-4.3,10.1-8.4,15.5-12.1l0,0l4.1-3.6l-1.8,5.2
					l-9.6,27.9l-2.5-1.4l51-62.8l5.6-6.9l-3.2,8.4L524.2,742l-2.1-1.7l58.1-34.7l12-7.2l-10.3,9.4l-38.7,35.7l-1.4-2.4L686,700.5
					l0.9,2.7l-137.6,51.4l0-2.7l24.9,10.1l7.1,2.9l-7.6-0.1l-44.1-0.6l1-2.5l50.8,48.6l5.3,5l-6.8-2.7l-76.5-29.9l1.5-2.4
					c5,4.3,10,8.7,14.9,13.2L534,807.1z"/>
			</g>
		</g>
		<g>
			<g>
				<g>
					<path class="st0" d="M391.5,58v4c10.1,0,22.6,3.7,26.2,9.9c1.4,2.5,1.2,5.3-0.6,8.6C410.8,91.7,391.1,92,378,92.2l-1.5,0
						c-0.4,0-0.9,0-1.3,0c-8.9,0-15-1.6-18-4.8c-1.8-1.9-2.6-4.5-2.5-7.9c0.3-5.9,4.2-10.3,12.1-13.4c8.3-3.3,18.4-4.1,23.6-4.2
						c0.4,0,0.7,0,1.1,0L391.5,58 M391.5,58c-0.4,0-0.8,0-1.2,0c-14.7,0.4-38.8,4.4-39.5,21.4c-0.6,13.9,12,16.8,24.5,16.8
						c0.5,0,0.9,0,1.4,0c13.5-0.2,36.2-0.1,44-13.8C429.7,66.3,407.2,58,391.5,58L391.5,58z"/>
				</g>
				<path class="st0" d="M413.7,83.9c-1.7-0.5-8.8,0.1-9.8-2.6c-1-2.7,6.3-1.8,6.1-4.5c-0.2-2.7-8.1-6.7,0.7-5.9
					c3.6,0.3,8.1,2.2,10.3-1c-8.8-7.8-17.8-11.8-30.2-11.6c-15.4,0.3-26.8,3.3-37.5,14c1.2,1.5,7.8-0.8,8.9-1
					c14.6-3.6,17-0.1,16.1,0.9c-1.3,1.5-11.3,2.9-11.4,4.5c-0.2,3.3-3.9,3.3-1.8,5.3c2,2,4.7,3.7,0.6,4.7c-3.3,0.8-6.7-1.2-9.5-1.3
					c-2.2,0-2.1,0-4,0.4c0.2,1.4,2.2,3.4,3.1,3.9c0.8,0.5,0.3,0.1,0.5,0.2c1.7-0.3,7-1.2,8-1.2c5.3-0.1,9.2,1.2,12.2,4.8
					c3,3.6,7.8,0.5,14-0.6c9.9-1.7,14.7-1.1,24.7-4.9C416.7,85.3,417.3,85,413.7,83.9z M401.5,76.1c-2.4,2.1-8.3-4.1-10.9-4.6
					c-2.6-0.5-5,2.2-6.3,0.4c-1.3-1.8,1.5-2.4,3-3.4c1.5-0.9,0.4-3.4,3.1-3.9c2.7-0.5,3,4.8,4.3,5.8C396,71.4,402.7,75,401.5,76.1z"
					/>
			</g>
			<path class="st0" d="M319.8,99.5c9.7,2.2,18.1,0.4,27.9-0.7c9.8-1.1,18.4,3.4,26.8,7.7c12.1-3.6,21.5-8.4,34.8-6.2
				c12.7,2.1,26.4,3.6,39.5,1.2c-14.3,0-27.7-1.9-41.7-5.1c-5.5-1.3-11.1-0.9-16.5,0.2c-0.8,0.2-1.2,0.3-1.9,0.5s-1.1,0.3-1.7,0.5
				c-0.7,0.2-0.9,0.2-1.7,0.5c-0.8,0.2-1.1,0.3-2.4,0.6c-2,0.5-5.1,1.4-7.3,1.8c-1.9-0.6-4.5-1.8-6.1-2.5c-1-0.4-1.2-0.5-1.9-0.7
				c-0.7-0.2-0.7-0.4-1.3-0.5c-5.4-1.4-10.6-2.5-16.1-1.4C339.9,97.2,330.3,99.7,319.8,99.5z"/>
			<g>
				<path class="st0" d="M425.5,109.7c-2.4,2.1-7.1,1-10.2,0.8c-1.2-1.3-6.5-2.3-4.2-4.8c2.3-2.5,8.3-2.1,11.8-2.4
					C424.2,105,427.9,107.6,425.5,109.7z"/>
			</g>
			<g>
				<path class="st0" d="M345.4,104.2c1.1,2.4-2.8,3.3-4.2,4.4c-2.2-0.2-5.9,1-7.2-1.2c-1.3-2.2,2.2-4.4,3.3-6
					C339.8,101.8,344.3,101.8,345.4,104.2z"/>
			</g>
			<path class="st0" d="M418.7,60.8c-4-3.1-4.6-3.7-9.8-6.8c-7.4-4.4-12.1-8.3-6-17.1c-6.6,6.8-16.6,12.9-25.1,16.1
				c-5.7,2.2-7.9,3.1-12.8,5.4c9.1-2.6,18.2-4,27.7-3.8C402.2,54.8,410.2,57,418.7,60.8z"/>
			<g>
				<g>
					<path class="st0" d="M391.5,58v4c10.1,0,22.6,3.7,26.2,9.9c1.4,2.5,1.2,5.3-0.6,8.6C410.8,91.7,391.1,92,378,92.2l-1.5,0
						c-0.4,0-0.9,0-1.3,0c-8.9,0-15-1.6-18-4.8c-1.8-1.9-2.6-4.5-2.5-7.9c0.3-5.9,4.2-10.3,12.1-13.4c8.3-3.3,18.4-4.1,23.6-4.2
						c0.4,0,0.7,0,1.1,0L391.5,58 M391.5,58c-0.4,0-0.8,0-1.2,0c-14.7,0.4-38.8,4.4-39.5,21.4c-0.6,13.9,12,16.8,24.5,16.8
						c0.5,0,0.9,0,1.4,0c13.5-0.2,36.2-0.1,44-13.8C429.7,66.3,407.2,58,391.5,58L391.5,58z"/>
				</g>
			</g>
			<path class="st0" d="M391.9,119.1c-1.5-1.2-4-2.9-5.7-3.5c-1.7-0.6-3.1-0.5-4.3-1.2c-3.2-1.7-4.4-4-3.8-7.3
				c-1.1,0.3-2.2,1-3.3,0.9c-1.2-0.1-2.1-0.9-3.1-1.3c-0.3,3.2-2,4.8-5.5,5.7c-1.3,0.3-2.7,0-4.6,0.4c-1.9,0.4-5.3,1.7-7.3,2.7
				c6.2,0.8,12.3,0.2,18.6-0.1c0.1,0,0.3,0,0.4,0c0.1,0,0.3,0,0.4,0C379.6,117.2,385.5,118.9,391.9,119.1z"/>
		</g>
	</g>
</g>
</svg>
