<svg id="PLAYSPACE" xmlns="http://www.w3.org/2000/svg" viewBox="0 0 1054.52 1033.39"><defs><style>.cls-1{fill:#e3f4fc;}.cls-2{fill:#fff;}</style></defs><title>GRID</title><g id="GRID"><path class="cls-1" d="M753,569.41A29.41,29.41,0,1,1,782.42,540,29.44,29.44,0,0,1,753,569.41Zm0-43.82A14.41,14.41,0,1,0,767.42,540,14.42,14.42,0,0,0,753,525.59Z" transform="translate(-46.03 -24.21)"/><path class="cls-1" d="M393.57,569.41A29.41,29.41,0,1,1,423,540,29.44,29.44,0,0,1,393.57,569.41Zm0-43.82A14.41,14.41,0,1,0,408,540,14.42,14.42,0,0,0,393.57,525.59Z" transform="translate(-46.03 -24.21)"/><path class="cls-1" d="M46,539.5c22-3.13,43.93-5.79,65.9-8.27,11-1.29,22-2.39,33-3.59l33-3.31a133.26,133.26,0,0,1,16.48.06c5.49.18,11,.09,16.48.11H968.73l32.95,3.35c11,1.19,22,2.31,33,3.58s22,2.51,32.95,3.83l16.48,2.08,8.24,1,8.23,1.12-8.23,1.12-8.24,1-16.48,2.08q-16.47,2-32.95,3.83c-11,1.27-22,2.39-33,3.58l-32.95,3.35H210.8c-5.5,0-11-.07-16.48.11a131.33,131.33,0,0,1-16.48,0l-33-3.3c-11-1.2-22-2.3-33-3.59C90,545.29,68,542.63,46,539.5Z" transform="translate(-46.03 -24.21)"/><path class="cls-1" d="M402.57,26.78c2.75,21.53,5,43.05,7.14,64.57,1.1,10.76,2,21.52,3,32.28l2.74,32.27a129.09,129.09,0,0,1-.33,16.1c-.28,5.37-.28,10.74-.4,16.11l-.56,32.21-1.12,64.43-4.5,257.7-4.5,257.7L401.82,929l-3.91,32.16c-1.38,10.71-2.69,21.43-4.14,32.15s-2.89,21.43-4.4,32.14L387,1041.52l-1.18,8-1.26,8-1-8.07-.91-8.07-1.79-16.15c-1.13-10.76-2.24-21.52-3.27-32.28s-2-21.51-3-32.27l-2.79-32.27,2.25-128.85,4.5-257.71,4.5-257.7,1.12-64.42.57-32.22c.07-5.36.25-10.73.17-16.1a129.23,129.23,0,0,1,.22-16.11L389,123.21c1.39-10.71,2.68-21.43,4.16-32.15C396,69.63,399.06,48.2,402.57,26.78Z" transform="translate(-46.03 -24.21)"/><path class="cls-1" d="M762,24.21c2.75,21.52,5,43,7.14,64.55,1.1,10.76,2,21.51,3,32.27l2.74,32.26a129.29,129.29,0,0,1-.33,16.11c-.28,5.36-.28,10.73-.4,16.1l-.56,32.2-1.12,64.41L768,539.76l-4.5,257.65-2.25,128.82-3.91,32.15c-1.38,10.71-2.68,21.43-4.14,32.14s-2.89,21.43-4.39,32.14l-2.36,16.07-1.19,8-1.25,8-1-8.07-.9-8.07-1.8-16.14c-1.13-10.75-2.24-21.51-3.27-32.27s-2-21.51-3-32.27l-2.78-32.26,2.25-128.83L738,539.24l4.5-257.65,1.12-64.41.57-32.21c.07-5.37.25-10.73.16-16.1a129.26,129.26,0,0,1,.23-16.11l3.87-32.14c1.39-10.72,2.68-21.43,4.16-32.15C755.46,67.05,758.49,45.62,762,24.21Z" transform="translate(-46.03 -24.21)"/><path class="cls-2" d="M46,539.5c43.93-3.13,87.87-5.34,131.81-7.58l65.91.08h725c43.94,2.28,87.88,4.49,131.81,7.5-43.93,3-87.87,5.22-131.81,7.5h-725l-65.91.07C133.9,544.84,90,542.63,46,539.5Z" transform="translate(-46.03 -24.21)"/><path class="cls-2" d="M402.57,26.78c2.37,43,3.83,86,5.32,129l-1.2,64.42-1.12,64.43-4.5,257.7L396.57,800l-2.25,128.85c-3,42.91-6,85.82-9.75,128.72-2.26-43-3.72-86-5.25-129l2.25-128.85,4.5-257.7,4.5-257.71,1.12-64.42,1.05-64.43C395.73,112.59,398.69,69.68,402.57,26.78Z" transform="translate(-46.03 -24.21)"/><circle class="cls-2" cx="347.54" cy="515.79" r="21.91"/><path class="cls-2" d="M762,24.21c2.37,43,3.83,86,5.32,129l-1.2,64.41L765,282l-4.5,257.65L756,797.28,753.75,926.1c-3,42.9-6,85.81-9.74,128.69-2.26-43-3.72-86-5.25-128.95L741,797l4.5-257.65L750,281.72l1.12-64.41,1-64.41C755.16,110,758.12,67.09,762,24.21Z" transform="translate(-46.03 -24.21)"/><circle class="cls-2" cx="706.97" cy="515.79" r="21.91"/></g></svg>